<svg width="126" height="164" viewBox="0 0 126 164" fill="none" xmlns="http://www.w3.org/2000/svg">
<path d="M125.301 127.574L52.1365 164L0.819275 138.469V135.298L125.301 124.403V127.574Z" fill="#6586C9"/>
<path opacity="0.5" d="M60.6146 128.265L0.819275 135.298V138.469L52.055 163.959L60.6146 128.265Z" fill="#1E283A"/>
<path d="M125.301 124.403L52.1365 160.829L0.819275 135.298L74.84 99.4408L125.301 124.403Z" fill="#91AFF9"/>
<path d="M109.568 85.415L110.872 85.9841L119.35 27.2385L118.046 26.71L109.568 31.5479V85.415Z" fill="#6586C9"/>
<path d="M110.872 85.9841L119.35 81.1463V27.2385L110.872 32.117V85.9841Z" fill="#91AFF9"/>
<path fill-rule="evenodd" clip-rule="evenodd" d="M113.073 34.7293C113.337 34.7293 113.552 34.9431 113.552 35.2068V41.7115C113.552 41.9752 113.337 42.1889 113.073 42.1889C112.809 42.1889 112.594 41.9752 112.594 41.7115V35.2068C112.594 34.9431 112.809 34.7293 113.073 34.7293Z" fill="white"/>
<path fill-rule="evenodd" clip-rule="evenodd" d="M117.312 32.1681C117.577 32.1681 117.791 32.3818 117.791 32.6455V39.1502C117.791 39.4139 117.577 39.6277 117.312 39.6277C117.048 39.6277 116.833 39.4139 116.833 39.1502V32.6455C116.833 32.3818 117.048 32.1681 117.312 32.1681Z" fill="white"/>
<path fill-rule="evenodd" clip-rule="evenodd" d="M117.613 35.6741C117.737 35.907 117.648 36.196 117.414 36.3196L113.42 38.4336C113.186 38.5572 112.896 38.4686 112.773 38.2357C112.649 38.0027 112.738 37.7137 112.971 37.5901L116.966 35.4761C117.199 35.3525 117.489 35.4411 117.613 35.6741Z" fill="white"/>
<path fill-rule="evenodd" clip-rule="evenodd" d="M113.073 64.9762C113.337 64.9762 113.552 65.19 113.552 65.4536V71.9584C113.552 72.222 113.337 72.4358 113.073 72.4358C112.809 72.4358 112.594 72.222 112.594 71.9584V65.4536C112.594 65.19 112.809 64.9762 113.073 64.9762Z" fill="white"/>
<path fill-rule="evenodd" clip-rule="evenodd" d="M116.187 66.7363C116.31 66.9699 116.22 67.2584 115.985 67.3808L113.418 68.7224C113.183 68.8447 112.894 68.7546 112.771 68.521C112.649 68.2874 112.739 67.9989 112.973 67.8765L115.541 66.5349C115.775 66.4126 116.065 66.5027 116.187 66.7363Z" fill="white"/>
<path fill-rule="evenodd" clip-rule="evenodd" d="M117.613 62.9939C117.737 63.2268 117.648 63.5158 117.414 63.6394L113.42 65.7534C113.186 65.877 112.896 65.7884 112.773 65.5555C112.649 65.3225 112.738 65.0335 112.971 64.9099L116.966 62.7959C117.199 62.6723 117.489 62.7609 117.613 62.9939Z" fill="white"/>
<path fill-rule="evenodd" clip-rule="evenodd" d="M117.613 69.7425C117.737 69.9754 117.648 70.2644 117.414 70.388L113.42 72.5021C113.186 72.6257 112.896 72.537 112.773 72.3041C112.649 72.0712 112.738 71.7822 112.971 71.6586L116.966 69.5445C117.199 69.4209 117.489 69.5096 117.613 69.7425Z" fill="white"/>
<path fill-rule="evenodd" clip-rule="evenodd" d="M113.073 74.0015C113.337 74.0015 113.552 74.2152 113.552 74.4789V80.9836C113.552 81.2473 113.337 81.4611 113.073 81.4611C112.809 81.4611 112.594 81.2473 112.594 80.9836V74.4789C112.594 74.2152 112.809 74.0015 113.073 74.0015Z" fill="white"/>
<path fill-rule="evenodd" clip-rule="evenodd" d="M117.611 78.7644C117.737 78.9964 117.65 79.2861 117.418 79.4115L113.423 81.5662C113.191 81.6916 112.9 81.6053 112.774 81.3734C112.649 81.1414 112.735 80.8517 112.968 80.7263L116.962 78.5716C117.195 78.4462 117.485 78.5325 117.611 78.7644Z" fill="white"/>
<path fill-rule="evenodd" clip-rule="evenodd" d="M113.632 44.3231C114.053 43.5984 114.694 42.9924 115.496 43.0232C115.502 43.0234 115.509 43.0237 115.515 43.0242C116.31 43.0852 116.888 43.7477 117.234 44.5138C117.592 45.3071 117.773 46.3515 117.709 47.4712C117.644 48.5845 117.365 49.6052 116.933 50.3587C116.514 51.09 115.872 51.6913 115.053 51.6611C115.046 51.6608 115.04 51.6605 115.034 51.66C114.239 51.599 113.66 50.9365 113.314 50.1704C112.956 49.3771 112.775 48.3326 112.84 47.213C112.904 46.0962 113.195 45.0753 113.632 44.3231ZM114.461 44.8016C114.113 45.4011 113.853 46.2707 113.796 47.268C113.738 48.2623 113.903 49.1489 114.187 49.7785C114.48 50.4277 114.834 50.6816 115.098 50.7071C115.378 50.7123 115.75 50.4984 116.102 49.885C116.444 49.2867 116.695 48.417 116.753 47.4162C116.81 46.4219 116.645 45.5352 116.361 44.9056C116.068 44.2564 115.714 44.0025 115.45 43.9771C115.193 43.9724 114.82 44.1819 114.461 44.8016Z" fill="white"/>
<path fill-rule="evenodd" clip-rule="evenodd" d="M118.141 52.9082C118.267 53.1401 118.18 53.4298 117.948 53.5553L115.464 54.8951L113.144 56.1942C112.914 56.3233 112.622 56.2415 112.493 56.0116C112.363 55.7817 112.445 55.4906 112.676 55.3616L114.999 54.0606L115.006 54.057L117.492 52.7154C117.725 52.5899 118.015 52.6762 118.141 52.9082Z" fill="white"/>
<path fill-rule="evenodd" clip-rule="evenodd" d="M115.396 53.9995C115.661 53.9995 115.875 54.2133 115.875 54.4769V61.876C115.875 62.1397 115.661 62.3535 115.396 62.3535C115.132 62.3535 114.918 62.1397 114.918 61.876V54.4769C114.918 54.2133 115.132 53.9995 115.396 53.9995Z" fill="white"/>
<path d="M62.0412 150.503L111.117 125.907V21.0997L62.0412 45.6956V150.503Z" fill="#FFC77D"/>
<path d="M21.6885 25.4903V130.297L62.0412 150.503V45.6956L21.6885 25.4903Z" fill="#FFB94D"/>
<path d="M113.155 20.0426L62.0412 45.6956L21.0771 25.0025L72.5982 0L113.155 20.0426Z" fill="#FFE2C0"/>
<path d="M109.242 19.9207L62.5303 43.4189L25.4385 24.9618L72.7612 1.91074L109.242 19.9207Z" fill="white"/>
<path d="M109.242 19.9207L62.5303 43.4189L25.4385 24.9618L72.7612 1.91074L109.242 19.9207Z" fill="#FFF5EB"/>
<path d="M72.7612 4.18738L106.959 21.059L109.242 19.9207L72.7612 1.91074L25.4385 24.9618L27.7618 26.1001L72.7612 4.18738Z" fill="#E2BF9C"/>
<path d="M72.7612 1.91074L72.5982 1.99205V4.22804L72.7612 4.18739L106.959 21.059L109.242 19.9207L72.7612 1.91074Z" fill="#CCA989"/>
<path d="M62.2043 45.6956V49.5171L113.155 23.8642V20.0426L62.2043 45.6956Z" fill="#FFEDDC"/>
<path d="M21.0771 25.0025V28.824L62.2043 49.5171V45.6956L21.0771 25.0025Z" fill="#F7D6B5"/>
<path d="M62.0412 81.8374L21.8516 61.3882L19.569 62.4859L61.7559 83.8294L113.155 58.0952L111.239 57.1601L62.0412 81.8374Z" fill="#FFE2C0"/>
<path d="M61.7967 83.7481V87.5697L113.155 61.9167V58.0952L61.7967 83.7481Z" fill="#FFEDDC"/>
<path d="M19.569 62.4858V66.3074L61.7967 87.5696V83.7481L19.569 62.4858Z" fill="#F7D6B5"/>
<path opacity="0.6" d="M62.0412 81.8374L21.8516 61.3882L19.569 62.4859L61.6336 83.7481L61.7967 83.6668L62.0412 81.8374Z" fill="#E2BF9C"/>
<path d="M62.0412 115.255L21.8516 94.8062L19.569 95.9445L61.6336 117.166L113.155 91.5132L111.239 90.5781L62.0412 115.255Z" fill="#FFE2C0"/>
<path d="M61.7967 117.166V120.988L113.155 95.3347V91.5132L61.7967 117.166Z" fill="#FFEDDC"/>
<path d="M19.569 95.9445V99.7253L61.7967 120.988V117.166L19.569 95.9445Z" fill="#F7D6B5"/>
<path opacity="0.6" d="M62.2043 115.174L62.0412 115.255L21.8516 94.8062L19.569 95.9445L61.6336 117.166L61.7967 117.085L62.2043 115.174Z" fill="#E2BF9C"/>
<path d="M55.8864 37.3614L34.3242 26.5474V25.8562L93.6305 17.5221L93.7527 18.2132L55.8864 37.3614ZM40.2345 26.5474L55.8864 34.3123L87.7202 18.2132L72.3536 10.6108L40.2345 26.5474Z" fill="#DBD2CA"/>
<path opacity="0.5" d="M55.8457 34.3124L40.2345 26.5474L42.5171 25.4497L34.3242 25.8562V26.5474L55.8457 37.3614V34.3124Z" fill="#B7ADA5"/>
<path d="M90.7365 17.5221L55.8864 35.1661L37.1775 25.8562L72.3536 8.41547L90.7365 17.5221Z" fill="#91AFF9"/>
<path d="M55.8864 36.6703L34.0797 25.8562L72.3536 6.91125L93.7935 17.5221L55.8864 36.6703ZM40.2345 25.8562L55.8864 33.6212L87.7202 17.5221L72.3536 9.91968L40.2345 25.8562Z" fill="white"/>
<path fill-rule="evenodd" clip-rule="evenodd" d="M74.8828 9.02531C74.8828 7.85697 75.8208 6.87274 77.041 6.87274C78.2124 6.87274 79.1992 7.80831 79.1992 9.02531V11.0174C79.1992 11.1734 79.0724 11.2998 78.916 11.2998C78.7596 11.2998 78.6328 11.1734 78.6328 11.0174V9.02531C78.6328 8.12829 77.9077 7.43768 77.041 7.43768C76.1417 7.43768 75.4492 8.16094 75.4492 9.02531V12.9688C75.4492 13.1248 75.3225 13.2513 75.166 13.2513C75.0096 13.2513 74.8828 13.1248 74.8828 12.9688V9.02531Z" fill="#EDCDAE"/>
<path fill-rule="evenodd" clip-rule="evenodd" d="M74.952 12.0731C75.0202 11.9327 75.1896 11.8741 75.3304 11.9422L78.0205 13.2431C78.1613 13.3112 78.2201 13.4801 78.1518 13.6205C78.0836 13.7609 77.9142 13.8195 77.7734 13.7514L75.0833 12.4505C74.9425 12.3824 74.8837 12.2135 74.952 12.0731Z" fill="#EDCDAE"/>
<path fill-rule="evenodd" clip-rule="evenodd" d="M77.8176 10.6515C77.8176 9.48313 78.7556 8.4989 79.9758 8.4989C81.1472 8.4989 82.1339 9.43447 82.1339 10.6515V12.6435C82.1339 12.7995 82.0072 12.926 81.8507 12.926C81.6943 12.926 81.5675 12.7995 81.5675 12.6435V10.6515C81.5675 9.75445 80.8424 9.06384 79.9758 9.06384C79.0764 9.06384 78.384 9.78709 78.384 10.6515V14.595C78.384 14.751 78.2572 14.8774 78.1008 14.8774C77.9444 14.8774 77.8176 14.751 77.8176 14.595V10.6515Z" fill="#FFE2C0"/>
<path d="M83.1958 24.8805V25.3684L87.2719 27.4011L94.9348 23.5389L90.9403 21.5875L83.1958 24.8805Z" fill="#304E89"/>
<path d="M95.6277 19.7174L90.9403 21.5875L94.9348 23.5389L95.9946 20.0426L95.6277 19.7174Z" fill="#304E89"/>
<path d="M94.6087 23.1324L87.1903 26.8726L83.1958 24.8805L88.8207 22.116L90.6957 21.181L94.6087 23.1324Z" fill="#4A6CD6"/>
<path d="M91.7147 17.766L90.6957 21.181L94.6087 23.1324L95.6277 19.7174L91.7147 17.766Z" fill="#3C5FB5"/>
<path d="M66.7694 33.418V33.9058L70.8455 35.9385L78.5084 32.0764L74.5139 30.0843L66.7694 33.418Z" fill="#304E89"/>
<path d="M79.2013 28.2142L74.5139 30.0843L78.5084 32.0763L79.5682 28.5801L79.2013 28.2142Z" fill="#304E89"/>
<path d="M78.1823 31.6291L70.7639 35.41L66.7694 33.4179L72.3943 30.6534L74.2693 29.7184L78.1823 31.6291Z" fill="#4A6CD6"/>
<path d="M75.2883 26.3034L74.2693 29.7184L78.1823 31.6292L79.2013 28.2142L75.2883 26.3034Z" fill="#3C5FB5"/>
<path d="M65.1798 56.5503L73.6579 52.3223V74.6009L65.1798 78.8289V56.5503Z" fill="#D2E1FF"/>
<path d="M73.3318 52.8508V74.3976L65.5466 78.3005V56.7536L73.3318 52.8508ZM73.984 51.7938L64.8537 56.3471V79.3981L73.984 74.8448V51.7938Z" fill="white"/>
<path fill-rule="evenodd" clip-rule="evenodd" d="M69.3731 76.593V54.1111H70.0353V76.593H69.3731Z" fill="white"/>
<path d="M81.1171 48.5008L89.5952 44.2727V66.592L81.1171 70.82V48.5008Z" fill="#D2E1FF"/>
<path d="M89.2691 44.8012V66.348L81.4839 70.2509V48.704L89.2691 44.8012ZM89.9213 43.7442L80.791 48.2975V71.3485L89.9213 66.7952V43.7442Z" fill="white"/>
<path fill-rule="evenodd" clip-rule="evenodd" d="M85.3103 68.5434V46.1021H85.9725V68.5434H85.3103Z" fill="white"/>
<path d="M96.769 40.6951L105.206 36.4671V58.7863L96.769 63.0144V40.6951Z" fill="#D2E1FF"/>
<path d="M104.88 37.0362V58.583L97.0951 62.4859V40.939L104.88 37.0362ZM105.532 35.9385L96.4022 40.4918V63.5429L105.532 58.9896V35.9385Z" fill="white"/>
<path fill-rule="evenodd" clip-rule="evenodd" d="M100.962 60.7377V38.2965H101.625V60.7377H100.962Z" fill="white"/>
<path d="M105.573 58.9083L96.4429 63.5429L98.1956 64.3966L107.326 59.8027L105.573 58.9083Z" fill="#FFE2C0"/>
<path opacity="0.2" d="M105.532 35.9385L105.573 58.9083L106.592 59.4368V36.4264L105.736 36.0198L105.532 35.9385Z" fill="#1E283A"/>
<path fill-rule="evenodd" clip-rule="evenodd" d="M105.399 58.8041C105.456 58.6855 105.599 58.6359 105.718 58.6935L108.409 59.9944C108.491 60.0342 108.543 60.1174 108.544 60.2086C108.544 60.2999 108.492 60.3833 108.41 60.4235L99.5239 64.7735C99.4585 64.8056 99.382 64.8061 99.3161 64.7751L97.0743 63.718C96.9548 63.6617 96.9037 63.5194 96.9602 63.4002C97.0167 63.281 97.1594 63.2301 97.2789 63.2864L99.4165 64.2943L107.758 60.2105L105.51 59.1231C105.391 59.0656 105.341 58.9228 105.399 58.8041Z" fill="#1E283A"/>
<path fill-rule="evenodd" clip-rule="evenodd" d="M105.399 50.348C105.456 50.2294 105.599 50.1799 105.718 50.2374L108.409 51.5383C108.491 51.5781 108.543 51.6613 108.544 51.7526C108.544 51.8438 108.492 51.9272 108.41 51.9674L99.5239 56.3175C99.4573 56.35 99.3795 56.35 99.3129 56.3174L97.0711 55.2198C96.9525 55.1617 96.9035 55.0186 96.9617 54.9003C97.02 54.7819 97.1634 54.7331 97.2821 54.7912L99.4184 55.8372L107.758 51.7544L105.51 50.667C105.391 50.6095 105.341 50.4667 105.399 50.348Z" fill="#1E283A"/>
<path d="M97.5027 38.5404H95.2609V64.0308H97.5027V38.5404Z" fill="#FFC77D"/>
<path fill-rule="evenodd" clip-rule="evenodd" d="M108.304 51.6337C108.37 51.6337 108.424 51.6872 108.424 51.7531V60.2092C108.424 60.2752 108.37 60.3286 108.304 60.3286C108.238 60.3286 108.184 60.2752 108.184 60.2092V51.7531C108.184 51.6872 108.238 51.6337 108.304 51.6337Z" fill="#1E283A"/>
<path fill-rule="evenodd" clip-rule="evenodd" d="M105.247 53.2193C105.313 53.2193 105.367 53.2727 105.367 53.3386V61.7948C105.367 61.8607 105.313 61.9141 105.247 61.9141C105.181 61.9141 105.127 61.8607 105.127 61.7948V53.3386C105.127 53.2727 105.181 53.2193 105.247 53.2193Z" fill="#1E283A"/>
<path fill-rule="evenodd" clip-rule="evenodd" d="M104.31 53.7071C104.376 53.7071 104.429 53.7606 104.429 53.8265V62.3233C104.429 62.3892 104.376 62.4426 104.31 62.4426C104.244 62.4426 104.19 62.3892 104.19 62.3233V53.8265C104.19 53.7606 104.244 53.7071 104.31 53.7071Z" fill="#1E283A"/>
<path fill-rule="evenodd" clip-rule="evenodd" d="M103.372 54.0323C103.438 54.0323 103.492 54.0858 103.492 54.1517V62.6485C103.492 62.7144 103.438 62.7679 103.372 62.7679C103.306 62.7679 103.252 62.7144 103.252 62.6485V54.1517C103.252 54.0858 103.306 54.0323 103.372 54.0323Z" fill="#1E283A"/>
<path fill-rule="evenodd" clip-rule="evenodd" d="M102.435 54.5609C102.501 54.5609 102.554 54.6143 102.554 54.6802V63.1363C102.554 63.2023 102.501 63.2557 102.435 63.2557C102.369 63.2557 102.315 63.2023 102.315 63.1363V54.6802C102.315 54.6143 102.369 54.5609 102.435 54.5609Z" fill="#1E283A"/>
<path fill-rule="evenodd" clip-rule="evenodd" d="M101.416 54.9268C101.482 54.9268 101.535 54.9802 101.535 55.0461V63.5022C101.535 63.5682 101.482 63.6216 101.416 63.6216C101.35 63.6216 101.296 63.5682 101.296 63.5022V55.0461C101.296 54.9802 101.35 54.9268 101.416 54.9268Z" fill="#1E283A"/>
<path fill-rule="evenodd" clip-rule="evenodd" d="M100.478 55.4553C100.544 55.4553 100.598 55.5087 100.598 55.5746V64.0308C100.598 64.0967 100.544 64.1501 100.478 64.1501C100.412 64.1501 100.359 64.0967 100.359 64.0308V55.5746C100.359 55.5087 100.412 55.4553 100.478 55.4553Z" fill="#1E283A"/>
<path fill-rule="evenodd" clip-rule="evenodd" d="M99.5407 55.9854C99.6059 55.9854 99.6588 56.0381 99.6588 56.1031V64.356C99.6588 64.421 99.6059 64.4737 99.5407 64.4737C99.4755 64.4737 99.4226 64.421 99.4226 64.356V56.1031C99.4226 56.0381 99.4755 55.9854 99.5407 55.9854Z" fill="#1E283A"/>
<path fill-rule="evenodd" clip-rule="evenodd" d="M98.644 55.6179C98.7101 55.6179 98.7637 55.6713 98.7637 55.7372V64.234C98.7637 64.2999 98.7101 64.3534 98.644 64.3534C98.5779 64.3534 98.5243 64.2999 98.5243 64.234V55.7372C98.5243 55.6713 98.5779 55.6179 98.644 55.6179Z" fill="#1E283A"/>
<path fill-rule="evenodd" clip-rule="evenodd" d="M97.8695 55.252C97.9356 55.252 97.9892 55.3054 97.9892 55.3713V63.8275C97.9892 63.8934 97.9356 63.9468 97.8695 63.9468C97.8034 63.9468 97.7499 63.8934 97.7499 63.8275V55.3713C97.7499 55.3054 97.8034 55.252 97.8695 55.252Z" fill="#1E283A"/>
<path fill-rule="evenodd" clip-rule="evenodd" d="M107.326 51.0572C107.396 51.0572 107.453 51.1139 107.453 51.1839V60.7377C107.453 60.8077 107.396 60.8644 107.326 60.8644C107.256 60.8644 107.199 60.8077 107.199 60.7377V51.1839C107.199 51.1139 107.256 51.0572 107.326 51.0572Z" fill="#1E283A"/>
<path fill-rule="evenodd" clip-rule="evenodd" d="M106.348 50.5767C106.414 50.5767 106.467 50.6302 106.467 50.6961V61.1036C106.467 61.1695 106.414 61.223 106.348 61.223C106.282 61.223 106.228 61.1695 106.228 61.1036V50.6961C106.228 50.6302 106.282 50.5767 106.348 50.5767Z" fill="#1E283A"/>
<path d="M90.0028 66.7139L80.8725 71.3485L82.6252 72.2429L91.7555 67.6083L90.0028 66.7139Z" fill="#FFE2C0"/>
<path opacity="0.2" d="M90.0028 43.7848V66.7139L91.0218 67.2424V44.2727L90.1658 43.8255L90.0028 43.7848Z" fill="#1E283A"/>
<path fill-rule="evenodd" clip-rule="evenodd" d="M89.8282 66.6098C89.8859 66.4912 90.029 66.4416 90.148 66.4991L92.8382 67.8001C92.9203 67.8398 92.9726 67.9226 92.9731 68.0136C92.9735 68.1047 92.9221 68.188 92.8404 68.2286L83.9954 72.6193C83.9292 72.6521 83.8514 72.6526 83.7848 72.6206L81.5022 71.5229C81.3832 71.4657 81.3332 71.323 81.3906 71.2042C81.448 71.0854 81.5911 71.0356 81.7101 71.0928L83.8871 72.1397L92.1909 68.0177L89.9391 66.9287C89.8202 66.8712 89.7705 66.7284 89.8282 66.6098Z" fill="#1E283A"/>
<path fill-rule="evenodd" clip-rule="evenodd" d="M89.8282 58.1537C89.8859 58.035 90.029 57.9855 90.148 58.043L92.8382 59.3439C92.9204 59.3837 92.9728 59.4668 92.9731 59.558C92.9734 59.6491 92.9216 59.7325 92.8396 59.7729L83.9946 64.1229C83.9285 64.1554 83.8512 64.1557 83.7848 64.1238L81.5022 63.0261C81.3832 62.9689 81.3332 62.8262 81.3906 62.7074C81.448 62.5887 81.5911 62.5388 81.7101 62.5961L83.8876 63.6432L92.1889 59.5606L89.9391 58.4726C89.8202 58.4151 89.7705 58.2723 89.8282 58.1537Z" fill="#1E283A"/>
<path d="M81.9322 46.3461H79.6904V71.8364H81.9322V46.3461Z" fill="#FFC77D"/>
<path fill-rule="evenodd" clip-rule="evenodd" d="M92.7337 59.4394C92.7998 59.4394 92.8534 59.4928 92.8534 59.5588V68.0149C92.8534 68.0808 92.7998 68.1343 92.7337 68.1343C92.6676 68.1343 92.614 68.0808 92.614 68.0149V59.5588C92.614 59.4928 92.6676 59.4394 92.7337 59.4394Z" fill="#1E283A"/>
<path fill-rule="evenodd" clip-rule="evenodd" d="M89.6767 61.0249C89.7428 61.0249 89.7964 61.0783 89.7964 61.1443V69.6004C89.7964 69.6663 89.7428 69.7197 89.6767 69.7197C89.6106 69.7197 89.557 69.6663 89.557 69.6004V61.1443C89.557 61.0783 89.6106 61.0249 89.6767 61.0249Z" fill="#1E283A"/>
<path fill-rule="evenodd" clip-rule="evenodd" d="M88.7392 61.5534C88.8053 61.5534 88.8589 61.6068 88.8589 61.6728V70.1289C88.8589 70.1948 88.8053 70.2483 88.7392 70.2483C88.6731 70.2483 88.6195 70.1948 88.6195 70.1289V61.6728C88.6195 61.6068 88.6731 61.5534 88.7392 61.5534Z" fill="#1E283A"/>
<path fill-rule="evenodd" clip-rule="evenodd" d="M87.8017 61.8787C87.8678 61.8787 87.9214 61.9321 87.9214 61.998V70.4541C87.9214 70.5201 87.8678 70.5735 87.8017 70.5735C87.7356 70.5735 87.6821 70.5201 87.6821 70.4541V61.998C87.6821 61.9321 87.7356 61.8787 87.8017 61.8787Z" fill="#1E283A"/>
<path fill-rule="evenodd" clip-rule="evenodd" d="M86.8642 62.3665C86.9303 62.3665 86.9839 62.42 86.9839 62.4859V70.9827C86.9839 71.0486 86.9303 71.102 86.8642 71.102C86.7981 71.102 86.7446 71.0486 86.7446 70.9827V62.4859C86.7446 62.42 86.7981 62.3665 86.8642 62.3665Z" fill="#1E283A"/>
<path fill-rule="evenodd" clip-rule="evenodd" d="M85.8452 62.7324C85.9113 62.7324 85.9649 62.7858 85.9649 62.8518V71.3485C85.9649 71.4145 85.9113 71.4679 85.8452 71.4679C85.7791 71.4679 85.7256 71.4145 85.7256 71.3485V62.8518C85.7256 62.7858 85.7791 62.7324 85.8452 62.7324Z" fill="#1E283A"/>
<path fill-rule="evenodd" clip-rule="evenodd" d="M84.9485 63.2609C85.0146 63.2609 85.0682 63.3143 85.0682 63.3803V71.8364C85.0682 71.9023 85.0146 71.9558 84.9485 71.9558C84.8824 71.9558 84.8288 71.9023 84.8288 71.8364V63.3803C84.8288 63.3143 84.8824 63.2609 84.9485 63.2609Z" fill="#1E283A"/>
<path fill-rule="evenodd" clip-rule="evenodd" d="M83.9703 63.791C84.0355 63.791 84.0883 63.8437 84.0883 63.9088V72.1616C84.0883 72.2266 84.0355 72.2794 83.9703 72.2794C83.9051 72.2794 83.8522 72.2266 83.8522 72.1616V63.9088C83.8522 63.8437 83.9051 63.791 83.9703 63.791Z" fill="#1E283A"/>
<path fill-rule="evenodd" clip-rule="evenodd" d="M83.1143 63.4642C83.1804 63.4642 83.234 63.5176 83.234 63.5835V72.0397C83.234 72.1056 83.1804 72.159 83.1143 72.159C83.0482 72.159 82.9946 72.1056 82.9946 72.0397V63.5835C82.9946 63.5176 83.0482 63.4642 83.1143 63.4642Z" fill="#1E283A"/>
<path fill-rule="evenodd" clip-rule="evenodd" d="M82.2991 63.0576C82.3652 63.0576 82.4188 63.1111 82.4188 63.177V71.6331C82.4188 71.699 82.3652 71.7525 82.2991 71.7525C82.233 71.7525 82.1794 71.699 82.1794 71.6331V63.177C82.1794 63.1111 82.233 63.0576 82.2991 63.0576Z" fill="#1E283A"/>
<path fill-rule="evenodd" clip-rule="evenodd" d="M91.7555 58.8629C91.8257 58.8629 91.8825 58.9196 91.8825 58.9896V68.5434C91.8825 68.6134 91.8257 68.6701 91.7555 68.6701C91.6853 68.6701 91.6284 68.6134 91.6284 68.5434V58.9896C91.6284 58.9196 91.6853 58.8629 91.7555 58.8629Z" fill="#1E283A"/>
<path fill-rule="evenodd" clip-rule="evenodd" d="M90.7772 58.3824C90.8433 58.3824 90.8969 58.4358 90.8969 58.5017V68.9499C90.8969 69.0158 90.8433 69.0693 90.7772 69.0693C90.7111 69.0693 90.6576 69.0158 90.6576 68.9499V58.5017C90.6576 58.4358 90.7111 58.3824 90.7772 58.3824Z" fill="#1E283A"/>
<path d="M74.0248 74.7229L64.8945 79.3575L66.6472 80.2112L75.8182 75.6173L74.0248 74.7229Z" fill="#FFE2C0"/>
<path opacity="0.2" d="M74.0248 51.7531V74.7229L75.0438 75.2514V52.241L74.1878 51.8344L74.0248 51.7531Z" fill="#1E283A"/>
<path fill-rule="evenodd" clip-rule="evenodd" d="M73.8501 74.6187C73.9078 74.5001 74.051 74.4505 74.1699 74.5081L76.8601 75.809C76.9424 75.8488 76.9947 75.9318 76.995 76.023C76.9953 76.1142 76.9435 76.1976 76.8615 76.2379L68.0166 80.5879C67.9516 80.6199 67.8756 80.6208 67.8099 80.5904L65.5273 79.5333C65.4075 79.4778 65.3554 79.3359 65.411 79.2163C65.4667 79.0967 65.609 79.0448 65.7289 79.1003L67.9076 80.1092L76.2108 76.0256L73.9611 74.9377C73.8422 74.8801 73.7925 74.7373 73.8501 74.6187Z" fill="#1E283A"/>
<path fill-rule="evenodd" clip-rule="evenodd" d="M73.8501 66.1626C73.9078 66.044 74.051 65.9944 74.1699 66.0519L76.8601 67.3529C76.9424 67.3927 76.9947 67.4757 76.995 67.5669C76.9953 67.6581 76.9435 67.7415 76.8615 67.7818L68.0166 72.1318C67.9505 72.1643 67.8731 72.1647 67.8068 72.1327L65.5242 71.0351C65.4051 70.9778 65.3551 70.8351 65.4125 70.7164C65.4699 70.5976 65.613 70.5477 65.7321 70.605L67.9095 71.6521L76.2108 67.5695L73.9611 66.4816C73.8421 66.424 73.7925 66.2812 73.8501 66.1626Z" fill="#1E283A"/>
<path d="M65.9542 54.355H63.7124V79.8453H65.9542V54.355Z" fill="#FFC77D"/>
<path fill-rule="evenodd" clip-rule="evenodd" d="M76.7557 67.4483C76.8218 67.4483 76.8754 67.5018 76.8754 67.5677V76.0238C76.8754 76.0897 76.8218 76.1432 76.7557 76.1432C76.6896 76.1432 76.636 76.0897 76.636 76.0238V67.5677C76.636 67.5018 76.6896 67.4483 76.7557 67.4483Z" fill="#1E283A"/>
<path fill-rule="evenodd" clip-rule="evenodd" d="M73.6987 69.0338C73.7648 69.0338 73.8183 69.0873 73.8183 69.1532V77.6093C73.8183 77.6752 73.7648 77.7287 73.6987 77.7287C73.6326 77.7287 73.579 77.6752 73.579 77.6093V69.1532C73.579 69.0873 73.6326 69.0338 73.6987 69.0338Z" fill="#1E283A"/>
<path fill-rule="evenodd" clip-rule="evenodd" d="M72.802 69.5217C72.868 69.5217 72.9216 69.5751 72.9216 69.6411V78.1378C72.9216 78.2038 72.868 78.2572 72.802 78.2572C72.7359 78.2572 72.6823 78.2038 72.6823 78.1378V69.6411C72.6823 69.5751 72.7359 69.5217 72.802 69.5217Z" fill="#1E283A"/>
<path fill-rule="evenodd" clip-rule="evenodd" d="M71.8237 69.8469C71.8898 69.8469 71.9434 69.9004 71.9434 69.9663V78.4631C71.9434 78.529 71.8898 78.5824 71.8237 78.5824C71.7576 78.5824 71.704 78.529 71.704 78.4631V69.9663C71.704 69.9004 71.7576 69.8469 71.8237 69.8469Z" fill="#1E283A"/>
<path fill-rule="evenodd" clip-rule="evenodd" d="M70.927 70.3754C70.9931 70.3754 71.0466 70.4289 71.0466 70.4948V78.9509C71.0466 79.0168 70.9931 79.0703 70.927 79.0703C70.8609 79.0703 70.8073 79.0168 70.8073 78.9509V70.4948C70.8073 70.4289 70.8609 70.3754 70.927 70.3754Z" fill="#1E283A"/>
<path fill-rule="evenodd" clip-rule="evenodd" d="M69.8672 70.7413C69.9333 70.7413 69.9869 70.7948 69.9869 70.8607V79.3168C69.9869 79.3827 69.9333 79.4362 69.8672 79.4362C69.8011 79.4362 69.7475 79.3827 69.7475 79.3168V70.8607C69.7475 70.7948 69.8011 70.7413 69.8672 70.7413Z" fill="#1E283A"/>
<path fill-rule="evenodd" clip-rule="evenodd" d="M68.9705 71.2699C69.0366 71.2699 69.0902 71.3233 69.0902 71.3892V79.8453C69.0902 79.9113 69.0366 79.9647 68.9705 79.9647C68.9044 79.9647 68.8508 79.9113 68.8508 79.8453V71.3892C68.8508 71.3233 68.9044 71.2699 68.9705 71.2699Z" fill="#1E283A"/>
<path fill-rule="evenodd" clip-rule="evenodd" d="M67.9922 71.7999C68.0574 71.7999 68.1103 71.8527 68.1103 71.9177V80.1706C68.1103 80.2356 68.0574 80.2883 67.9922 80.2883C67.927 80.2883 67.8742 80.2356 67.8742 80.1706V71.9177C67.8742 71.8527 67.927 71.7999 67.9922 71.7999Z" fill="#1E283A"/>
<path fill-rule="evenodd" clip-rule="evenodd" d="M67.1363 71.4325C67.2024 71.4325 67.2559 71.4859 67.2559 71.5518V80.0486C67.2559 80.1145 67.2024 80.168 67.1363 80.168C67.0702 80.168 67.0166 80.1145 67.0166 80.0486V71.5518C67.0166 71.4859 67.0702 71.4325 67.1363 71.4325Z" fill="#1E283A"/>
<path fill-rule="evenodd" clip-rule="evenodd" d="M66.3211 71.0666C66.3872 71.0666 66.4407 71.12 66.4407 71.1859V79.6421C66.4407 79.708 66.3872 79.7614 66.3211 79.7614C66.255 79.7614 66.2014 79.708 66.2014 79.6421V71.1859C66.2014 71.12 66.255 71.0666 66.3211 71.0666Z" fill="#1E283A"/>
<path fill-rule="evenodd" clip-rule="evenodd" d="M75.7775 66.8718C75.8476 66.8718 75.9045 66.9285 75.9045 66.9985V76.5523C75.9045 76.6223 75.8476 76.679 75.7775 76.679C75.7073 76.679 75.6504 76.6223 75.6504 76.5523V66.9985C75.6504 66.9285 75.7073 66.8718 75.7775 66.8718Z" fill="#1E283A"/>
<path fill-rule="evenodd" clip-rule="evenodd" d="M74.7992 66.3913C74.8653 66.3913 74.9189 66.4447 74.9189 66.5107V76.9182C74.9189 76.9841 74.8653 77.0376 74.7992 77.0376C74.7331 77.0376 74.6795 76.9841 74.6795 76.9182V66.5107C74.6795 66.4447 74.7331 66.3913 74.7992 66.3913Z" fill="#1E283A"/>
<path d="M65.1798 90.4155L73.6579 86.2281V108.507L65.1798 112.735V90.4155Z" fill="#D2E1FF"/>
<path d="M73.3318 86.7566V108.303L65.5466 112.206V90.6594L73.3318 86.7566ZM73.984 85.6995L64.8537 90.2528V113.304L73.984 108.751V85.6995Z" fill="white"/>
<path fill-rule="evenodd" clip-rule="evenodd" d="M69.3731 110.499V88.0169H70.0353V110.499H69.3731Z" fill="white"/>
<path d="M81.1171 82.4065L89.5952 78.1785V100.498L81.1171 104.685V82.4065Z" fill="#D2E1FF"/>
<path d="M89.2691 78.707V100.254L81.4839 104.157V82.6098L89.2691 78.707ZM89.9213 77.65L80.791 82.2033V105.254L89.9213 100.701V77.65Z" fill="white"/>
<path fill-rule="evenodd" clip-rule="evenodd" d="M85.3103 102.449V80.0079H85.9725V102.449H85.3103Z" fill="white"/>
<path d="M96.769 74.6009L105.206 70.3728V92.6921L96.769 96.9202V74.6009Z" fill="#D2E1FF"/>
<path d="M104.88 70.9013V92.4482L97.0951 96.351V74.8042L104.88 70.9013ZM105.532 69.8443L96.4429 74.3976V97.4487L105.573 92.8954V69.8443H105.532Z" fill="white"/>
<path fill-rule="evenodd" clip-rule="evenodd" d="M100.962 94.6435V72.2023H101.625V94.6435H100.962Z" fill="white"/>
<path d="M105.573 92.8141L96.4429 97.4487L98.1956 98.3024L107.326 93.7085L105.573 92.8141Z" fill="#FFE2C0"/>
<path opacity="0.2" d="M105.532 69.8443L105.573 92.8141L106.592 93.3426V70.3322L105.736 69.885L105.532 69.8443Z" fill="#1E283A"/>
<path fill-rule="evenodd" clip-rule="evenodd" d="M105.399 92.7099C105.456 92.5913 105.599 92.5417 105.718 92.5992L108.409 93.9002C108.491 93.94 108.543 94.0232 108.544 94.1144C108.544 94.2057 108.492 94.2891 108.41 94.3293L99.5239 98.6793C99.4573 98.7119 99.3795 98.7119 99.3129 98.6793L97.0711 97.5816C96.9525 97.5235 96.9035 97.3805 96.9617 97.2621C97.02 97.1438 97.1634 97.095 97.2821 97.1531L99.4184 98.1991L107.758 94.1163L105.51 93.0289C105.391 92.9713 105.341 92.8285 105.399 92.7099Z" fill="#1E283A"/>
<path fill-rule="evenodd" clip-rule="evenodd" d="M105.397 84.2565C105.454 84.1371 105.596 84.0858 105.716 84.1419L108.406 85.4022C108.489 85.4411 108.543 85.5241 108.543 85.6158C108.544 85.7074 108.493 85.7915 108.41 85.8322L99.5247 90.2228C99.458 90.2558 99.3797 90.2559 99.3129 90.2232L97.0711 89.1256C96.9525 89.0675 96.9035 88.9244 96.9617 88.8061C97.02 88.6877 97.1634 88.6389 97.2821 88.697L99.4179 89.7428L107.753 85.624L105.512 84.574C105.393 84.518 105.341 84.3758 105.397 84.2565Z" fill="#1E283A"/>
<path d="M97.5027 72.4462H95.2609V97.9365H97.5027V72.4462Z" fill="#FFC77D"/>
<path fill-rule="evenodd" clip-rule="evenodd" d="M108.304 85.4989C108.37 85.4989 108.424 85.5523 108.424 85.6182V94.115C108.424 94.1809 108.37 94.2344 108.304 94.2344C108.238 94.2344 108.184 94.1809 108.184 94.115V85.6182C108.184 85.5523 108.238 85.4989 108.304 85.4989Z" fill="#1E283A"/>
<path fill-rule="evenodd" clip-rule="evenodd" d="M105.247 87.1251C105.313 87.1251 105.367 87.1785 105.367 87.2444V95.7005C105.367 95.7665 105.313 95.8199 105.247 95.8199C105.181 95.8199 105.127 95.7665 105.127 95.7005V87.2444C105.127 87.1785 105.181 87.1251 105.247 87.1251Z" fill="#1E283A"/>
<path fill-rule="evenodd" clip-rule="evenodd" d="M104.31 87.6129C104.376 87.6129 104.429 87.6664 104.429 87.7323V96.229C104.429 96.295 104.376 96.3484 104.31 96.3484C104.244 96.3484 104.19 96.295 104.19 96.229V87.7323C104.19 87.6664 104.244 87.6129 104.31 87.6129Z" fill="#1E283A"/>
<path fill-rule="evenodd" clip-rule="evenodd" d="M103.372 87.9382C103.438 87.9382 103.492 87.9916 103.492 88.0575V96.5543C103.492 96.6202 103.438 96.6737 103.372 96.6737C103.306 96.6737 103.252 96.6202 103.252 96.5543V88.0575C103.252 87.9916 103.306 87.9382 103.372 87.9382Z" fill="#1E283A"/>
<path fill-rule="evenodd" clip-rule="evenodd" d="M102.435 88.4666C102.501 88.4666 102.554 88.5201 102.554 88.586V97.0421C102.554 97.1081 102.501 97.1615 102.435 97.1615C102.369 97.1615 102.315 97.1081 102.315 97.0421V88.586C102.315 88.5201 102.369 88.4666 102.435 88.4666Z" fill="#1E283A"/>
<path fill-rule="evenodd" clip-rule="evenodd" d="M101.416 88.8325C101.482 88.8325 101.535 88.886 101.535 88.9519V97.408C101.535 97.4739 101.482 97.5274 101.416 97.5274C101.35 97.5274 101.296 97.4739 101.296 97.408V88.9519C101.296 88.886 101.35 88.8325 101.416 88.8325Z" fill="#1E283A"/>
<path fill-rule="evenodd" clip-rule="evenodd" d="M100.478 89.3204C100.544 89.3204 100.598 89.3738 100.598 89.4398V97.9365C100.598 98.0025 100.544 98.0559 100.478 98.0559C100.412 98.0559 100.359 98.0025 100.359 97.9365V89.4398C100.359 89.3738 100.412 89.3204 100.478 89.3204Z" fill="#1E283A"/>
<path fill-rule="evenodd" clip-rule="evenodd" d="M99.5407 89.8912C99.6059 89.8912 99.6588 89.9439 99.6588 90.0089V98.2618C99.6588 98.3268 99.6059 98.3795 99.5407 98.3795C99.4755 98.3795 99.4226 98.3268 99.4226 98.2618V90.0089C99.4226 89.9439 99.4755 89.8912 99.5407 89.8912Z" fill="#1E283A"/>
<path fill-rule="evenodd" clip-rule="evenodd" d="M98.644 89.5237C98.7101 89.5237 98.7637 89.5771 98.7637 89.643V98.1398C98.7637 98.2057 98.7101 98.2592 98.644 98.2592C98.5779 98.2592 98.5243 98.2057 98.5243 98.1398V89.643C98.5243 89.5771 98.5779 89.5237 98.644 89.5237Z" fill="#1E283A"/>
<path fill-rule="evenodd" clip-rule="evenodd" d="M97.8695 89.1171C97.9356 89.1171 97.9892 89.1706 97.9892 89.2365V97.7333C97.9892 97.7992 97.9356 97.8526 97.8695 97.8526C97.8034 97.8526 97.7499 97.7992 97.7499 97.7333V89.2365C97.7499 89.1706 97.8034 89.1171 97.8695 89.1171Z" fill="#1E283A"/>
<path fill-rule="evenodd" clip-rule="evenodd" d="M107.326 84.963C107.396 84.963 107.453 85.0197 107.453 85.0897V94.6435C107.453 94.7135 107.396 94.7702 107.326 94.7702C107.256 94.7702 107.199 94.7135 107.199 94.6435V85.0897C107.199 85.0197 107.256 84.963 107.326 84.963Z" fill="#1E283A"/>
<path fill-rule="evenodd" clip-rule="evenodd" d="M106.348 84.4825C106.414 84.4825 106.467 84.536 106.467 84.6019V95.0094C106.467 95.0753 106.414 95.1288 106.348 95.1288C106.282 95.1288 106.228 95.0753 106.228 95.0094V84.6019C106.228 84.536 106.282 84.4825 106.348 84.4825Z" fill="#1E283A"/>
<path d="M90.0028 100.62L80.8725 105.254L82.6252 106.108L91.7555 101.514L90.0028 100.62Z" fill="#FFE2C0"/>
<path opacity="0.2" d="M90.0028 77.65V100.62L91.0218 101.148V78.1785L90.1658 77.7313L90.0028 77.65Z" fill="#1E283A"/>
<path fill-rule="evenodd" clip-rule="evenodd" d="M89.8282 100.516C89.8858 100.397 90.029 100.347 90.148 100.405L92.8381 101.706C92.9204 101.746 92.9728 101.829 92.9731 101.92C92.9734 102.011 92.9216 102.094 92.8396 102.135L83.9946 106.485C83.9296 106.517 83.8536 106.518 83.788 106.487L81.5054 105.43C81.3855 105.375 81.3334 105.233 81.3891 105.113C81.4447 104.994 81.5871 104.942 81.707 104.997L83.8856 106.006L92.1888 101.922L89.9391 100.835C89.8202 100.777 89.7705 100.634 89.8282 100.516Z" fill="#1E283A"/>
<path fill-rule="evenodd" clip-rule="evenodd" d="M89.8282 92.0594C89.8859 91.9408 90.029 91.8913 90.148 91.9488L92.8382 93.2497C92.9204 93.2895 92.9728 93.3726 92.9731 93.4637C92.9734 93.5549 92.9216 93.6383 92.8396 93.6786L83.9946 98.0287C83.9285 98.0612 83.8512 98.0615 83.7848 98.0296L81.5022 96.9319C81.3832 96.8747 81.3332 96.732 81.3906 96.6132C81.448 96.4945 81.5911 96.4446 81.7101 96.5019L83.8876 97.549L92.1889 93.4663L89.9391 92.3784C89.8202 92.3209 89.7705 92.1781 89.8282 92.0594Z" fill="#1E283A"/>
<path d="M81.9322 80.2518H79.6904V105.742H81.9322V80.2518Z" fill="#FFC77D"/>
<path fill-rule="evenodd" clip-rule="evenodd" d="M92.7337 93.3452C92.7998 93.3452 92.8534 93.3986 92.8534 93.4645V101.921C92.8534 101.987 92.7998 102.04 92.7337 102.04C92.6676 102.04 92.614 101.987 92.614 101.921V93.4645C92.614 93.3986 92.6676 93.3452 92.7337 93.3452Z" fill="#1E283A"/>
<path fill-rule="evenodd" clip-rule="evenodd" d="M89.6767 94.9307C89.7428 94.9307 89.7964 94.9842 89.7964 95.0501V103.506C89.7964 103.572 89.7428 103.626 89.6767 103.626C89.6106 103.626 89.557 103.572 89.557 103.506V95.0501C89.557 94.9842 89.6106 94.9307 89.6767 94.9307Z" fill="#1E283A"/>
<path fill-rule="evenodd" clip-rule="evenodd" d="M88.7392 95.4592C88.8053 95.4592 88.8589 95.5127 88.8589 95.5786V104.035C88.8589 104.101 88.8053 104.154 88.7392 104.154C88.6731 104.154 88.6195 104.101 88.6195 104.035V95.5786C88.6195 95.5127 88.6731 95.4592 88.7392 95.4592Z" fill="#1E283A"/>
<path fill-rule="evenodd" clip-rule="evenodd" d="M87.8017 95.7438C87.8678 95.7438 87.9214 95.7972 87.9214 95.8632V104.36C87.9214 104.426 87.8678 104.479 87.8017 104.479C87.7356 104.479 87.6821 104.426 87.6821 104.36V95.8632C87.6821 95.7972 87.7356 95.7438 87.8017 95.7438Z" fill="#1E283A"/>
<path fill-rule="evenodd" clip-rule="evenodd" d="M86.8642 96.2723C86.9303 96.2723 86.9839 96.3257 86.9839 96.3917V104.888C86.9839 104.954 86.9303 105.008 86.8642 105.008C86.7981 105.008 86.7446 104.954 86.7446 104.888V96.3917C86.7446 96.3257 86.7981 96.2723 86.8642 96.2723Z" fill="#1E283A"/>
<path fill-rule="evenodd" clip-rule="evenodd" d="M85.8452 96.6382C85.9113 96.6382 85.9649 96.6916 85.9649 96.7576V105.214C85.9649 105.28 85.9113 105.333 85.8452 105.333C85.7791 105.333 85.7256 105.28 85.7256 105.214V96.7576C85.7256 96.6916 85.7791 96.6382 85.8452 96.6382Z" fill="#1E283A"/>
<path fill-rule="evenodd" clip-rule="evenodd" d="M84.9485 97.1667C85.0146 97.1667 85.0682 97.2202 85.0682 97.2861V105.742C85.0682 105.808 85.0146 105.862 84.9485 105.862C84.8824 105.862 84.8288 105.808 84.8288 105.742V97.2861C84.8288 97.2202 84.8824 97.1667 84.9485 97.1667Z" fill="#1E283A"/>
<path fill-rule="evenodd" clip-rule="evenodd" d="M83.9703 97.6968C84.0355 97.6968 84.0883 97.7495 84.0883 97.8146V106.067C84.0883 106.132 84.0355 106.185 83.9703 106.185C83.9051 106.185 83.8522 106.132 83.8522 106.067V97.8146C83.8522 97.7495 83.9051 97.6968 83.9703 97.6968Z" fill="#1E283A"/>
<path fill-rule="evenodd" clip-rule="evenodd" d="M83.1143 97.37C83.1804 97.37 83.234 97.4234 83.234 97.4893V105.945C83.234 106.011 83.1804 106.065 83.1143 106.065C83.0482 106.065 82.9946 106.011 82.9946 105.945V97.4893C82.9946 97.4234 83.0482 97.37 83.1143 97.37Z" fill="#1E283A"/>
<path fill-rule="evenodd" clip-rule="evenodd" d="M82.2991 96.9634C82.3652 96.9634 82.4188 97.0169 82.4188 97.0828V105.539C82.4188 105.605 82.3652 105.658 82.2991 105.658C82.233 105.658 82.1794 105.605 82.1794 105.539V97.0828C82.1794 97.0169 82.233 96.9634 82.2991 96.9634Z" fill="#1E283A"/>
<path fill-rule="evenodd" clip-rule="evenodd" d="M91.7555 92.7687C91.8257 92.7687 91.8825 92.8254 91.8825 92.8954V102.449C91.8825 102.519 91.8257 102.576 91.7555 102.576C91.6853 102.576 91.6284 102.519 91.6284 102.449V92.8954C91.6284 92.8254 91.6853 92.7687 91.7555 92.7687Z" fill="#1E283A"/>
<path fill-rule="evenodd" clip-rule="evenodd" d="M90.7772 92.2882C90.8433 92.2882 90.8969 92.3416 90.8969 92.4075V102.815C90.8969 102.881 90.8433 102.934 90.7772 102.934C90.7111 102.934 90.6576 102.881 90.6576 102.815V92.4075C90.6576 92.3416 90.7111 92.2882 90.7772 92.2882Z" fill="#1E283A"/>
<path d="M74.0248 108.629L64.8945 113.263L66.6472 114.117L75.8182 109.523L74.0248 108.629Z" fill="#FFE2C0"/>
<path opacity="0.2" d="M74.0248 85.6589V108.629L75.0438 109.157V86.1467L74.1878 85.6995L74.0248 85.6589Z" fill="#1E283A"/>
<path fill-rule="evenodd" clip-rule="evenodd" d="M73.8501 108.525C73.9078 108.406 74.051 108.356 74.1699 108.414L76.8601 109.715C76.9424 109.755 76.9947 109.838 76.995 109.929C76.9953 110.02 76.9435 110.103 76.8615 110.144L68.0166 114.494C67.9505 114.526 67.8731 114.527 67.8068 114.495L65.5242 113.397C65.4051 113.34 65.3551 113.197 65.4125 113.078C65.4699 112.96 65.613 112.91 65.7321 112.967L67.9095 114.014L76.2108 109.931L73.9611 108.843C73.8421 108.786 73.7925 108.643 73.8501 108.525Z" fill="#1E283A"/>
<path fill-rule="evenodd" clip-rule="evenodd" d="M73.8489 100.071C73.9051 99.9517 74.0476 99.9004 74.1673 99.9565L76.8574 101.217C76.9405 101.256 76.994 101.339 76.995 101.43C76.9961 101.522 76.9445 101.606 76.8623 101.647L68.0174 106.037C67.9511 106.07 67.8734 106.071 67.8068 106.039L65.5242 104.941C65.4051 104.884 65.3551 104.741 65.4125 104.622C65.4699 104.503 65.613 104.454 65.7321 104.511L67.909 105.558L76.206 101.439L73.9638 100.389C73.8441 100.333 73.7927 100.19 73.8489 100.071Z" fill="#1E283A"/>
<path d="M65.9542 88.2608H63.7124V113.751H65.9542V88.2608Z" fill="#FFC77D"/>
<path fill-rule="evenodd" clip-rule="evenodd" d="M76.7557 101.313C76.8218 101.313 76.8754 101.367 76.8754 101.433V109.93C76.8754 109.996 76.8218 110.049 76.7557 110.049C76.6896 110.049 76.636 109.996 76.636 109.93V101.433C76.636 101.367 76.6896 101.313 76.7557 101.313Z" fill="#1E283A"/>
<path fill-rule="evenodd" clip-rule="evenodd" d="M73.6987 102.94C73.7648 102.94 73.8183 102.993 73.8183 103.059V111.515C73.8183 111.581 73.7648 111.634 73.6987 111.634C73.6326 111.634 73.579 111.581 73.579 111.515V103.059C73.579 102.993 73.6326 102.94 73.6987 102.94Z" fill="#1E283A"/>
<path fill-rule="evenodd" clip-rule="evenodd" d="M72.802 103.427C72.868 103.427 72.9216 103.481 72.9216 103.547V112.044C72.9216 112.11 72.868 112.163 72.802 112.163C72.7359 112.163 72.6823 112.11 72.6823 112.044V103.547C72.6823 103.481 72.7359 103.427 72.802 103.427Z" fill="#1E283A"/>
<path fill-rule="evenodd" clip-rule="evenodd" d="M71.8237 103.753C71.8898 103.753 71.9434 103.806 71.9434 103.872V112.369C71.9434 112.435 71.8898 112.488 71.8237 112.488C71.7576 112.488 71.704 112.435 71.704 112.369V103.872C71.704 103.806 71.7576 103.753 71.8237 103.753Z" fill="#1E283A"/>
<path fill-rule="evenodd" clip-rule="evenodd" d="M70.927 104.281C70.9931 104.281 71.0466 104.335 71.0466 104.401V112.857C71.0466 112.923 70.9931 112.976 70.927 112.976C70.8609 112.976 70.8073 112.923 70.8073 112.857V104.401C70.8073 104.335 70.8609 104.281 70.927 104.281Z" fill="#1E283A"/>
<path fill-rule="evenodd" clip-rule="evenodd" d="M69.8672 104.647C69.9333 104.647 69.9869 104.701 69.9869 104.767V113.223C69.9869 113.289 69.9333 113.342 69.8672 113.342C69.8011 113.342 69.7475 113.289 69.7475 113.223V104.767C69.7475 104.701 69.8011 104.647 69.8672 104.647Z" fill="#1E283A"/>
<path fill-rule="evenodd" clip-rule="evenodd" d="M68.9705 105.135C69.0366 105.135 69.0902 105.188 69.0902 105.254V113.751C69.0902 113.817 69.0366 113.87 68.9705 113.87C68.9044 113.87 68.8508 113.817 68.8508 113.751V105.254C68.8508 105.188 68.9044 105.135 68.9705 105.135Z" fill="#1E283A"/>
<path fill-rule="evenodd" clip-rule="evenodd" d="M67.9922 105.706C68.0574 105.706 68.1103 105.758 68.1103 105.824V114.076C68.1103 114.141 68.0574 114.194 67.9922 114.194C67.927 114.194 67.8742 114.141 67.8742 114.076V105.824C67.8742 105.758 67.927 105.706 67.9922 105.706Z" fill="#1E283A"/>
<path fill-rule="evenodd" clip-rule="evenodd" d="M67.1363 105.338C67.2024 105.338 67.2559 105.392 67.2559 105.458V113.954C67.2559 114.02 67.2024 114.074 67.1363 114.074C67.0702 114.074 67.0166 114.02 67.0166 113.954V105.458C67.0166 105.392 67.0702 105.338 67.1363 105.338Z" fill="#1E283A"/>
<path fill-rule="evenodd" clip-rule="evenodd" d="M66.3211 104.932C66.3872 104.932 66.4407 104.985 66.4407 105.051V113.548C66.4407 113.614 66.3872 113.667 66.3211 113.667C66.255 113.667 66.2014 113.614 66.2014 113.548V105.051C66.2014 104.985 66.255 104.932 66.3211 104.932Z" fill="#1E283A"/>
<path fill-rule="evenodd" clip-rule="evenodd" d="M75.7775 100.778C75.8476 100.778 75.9045 100.834 75.9045 100.904V110.458C75.9045 110.528 75.8476 110.585 75.7775 110.585C75.7073 110.585 75.6504 110.528 75.6504 110.458V100.904C75.6504 100.834 75.7073 100.778 75.7775 100.778Z" fill="#1E283A"/>
<path fill-rule="evenodd" clip-rule="evenodd" d="M74.7992 100.297C74.8653 100.297 74.9189 100.35 74.9189 100.416V110.824C74.9189 110.89 74.8653 110.943 74.7992 110.943C74.7331 110.943 74.6795 110.89 74.6795 110.824V100.416C74.6795 100.35 74.7331 100.297 74.7992 100.297Z" fill="#1E283A"/>
<path d="M36.6883 60.3719L36.7291 45.3297L45.2072 49.5171V64.5999L36.6883 60.3719Z" fill="#D2E1FF"/>
<path d="M37.0552 45.8582L44.8404 49.761V64.1121L37.0552 60.1686V45.8582ZM36.403 44.7605L36.3623 60.5751L45.5333 65.1284V49.3138L36.403 44.7605Z" fill="white"/>
<path fill-rule="evenodd" clip-rule="evenodd" d="M40.3517 62.3639V47.1185H41.0139V62.3639H40.3517Z" fill="white"/>
<path d="M36.3623 60.4938L45.4926 65.1284L44.5551 65.8195L35.3433 61.0223L36.3623 60.4938Z" fill="#E5C8AE"/>
<path opacity="0.2" d="M36.403 44.7605L36.3622 60.4938L35.3432 61.0223V45.2484L36.1992 44.8012L36.403 44.7605Z" fill="#1E283A"/>
<path d="M44.4328 65.6976L48.0197 67.2018L46.6746 47.3218H44.4328V65.6976Z" fill="#FFB94D"/>
<path d="M36.6883 94.6029L36.7291 79.5201L45.2072 83.7482V98.831L36.6883 94.6029Z" fill="#D2E1FF"/>
<path d="M37.0552 80.0486L44.8404 83.9514V98.3024L37.0144 94.3996L37.0552 80.0486ZM36.403 78.9916L36.3623 94.8062L45.5333 99.3594V83.5449L36.403 78.9916Z" fill="white"/>
<path fill-rule="evenodd" clip-rule="evenodd" d="M40.3517 96.5543V81.3495H41.0139V96.5543H40.3517Z" fill="white"/>
<path d="M36.3623 94.7249L45.4926 99.3188L44.5551 100.051L35.3433 95.2534L36.3623 94.7249Z" fill="#E5C8AE"/>
<path opacity="0.2" d="M36.403 78.9916L36.3622 94.7248L35.3432 95.2534V79.4794L36.1992 79.0322L36.403 78.9916Z" fill="#1E283A"/>
<path d="M44.4328 99.888L48.0197 101.392L46.6746 81.5528H44.4328V99.888Z" fill="#FFB94D"/>
<path d="M36.6883 128.834L36.7291 113.751L45.2072 117.979V133.021L36.6883 128.834Z" fill="#D2E1FF"/>
<path d="M37.0552 114.28L44.8404 118.183V132.534L37.0144 128.631L37.0552 114.28ZM36.403 113.223L36.3623 129.037L45.5333 133.591V117.776L36.403 113.223Z" fill="white"/>
<path fill-rule="evenodd" clip-rule="evenodd" d="M40.3517 130.785V115.581H41.0139V130.785H40.3517Z" fill="white"/>
<path d="M36.3623 128.915L45.4926 133.55L44.5551 134.241L35.3433 129.444L36.3623 128.915Z" fill="#E5C8AE"/>
<path opacity="0.2" d="M36.403 113.182L36.3622 128.915L35.3432 129.444V113.71L36.1992 113.263L36.403 113.182Z" fill="#1E283A"/>
<path d="M44.4328 134.119L48.0197 135.623L46.6746 115.784H44.4328V134.119Z" fill="#FFB94D"/>
<path d="M82.2176 117.735L90.655 113.507V135.826L82.2176 140.014V117.735Z" fill="#D2E1FF"/>
<path d="M90.3289 114.036V135.583L82.5437 139.485V117.939L90.3289 114.036ZM90.981 112.979L81.8507 117.532V140.583L90.981 136.03V112.979Z" fill="white"/>
<path fill-rule="evenodd" clip-rule="evenodd" d="M86.4109 137.778V115.337H87.0731V137.778H86.4109Z" fill="white"/>
<path d="M90.818 113.426L99.2962 109.198V131.517L90.818 135.745V113.426Z" fill="#D2E1FF"/>
<path d="M98.9293 109.767V131.314L91.1441 135.217V113.67L98.9293 109.767ZM99.6222 108.669L90.4919 113.223V136.274L99.6222 131.72V108.669Z" fill="white"/>
<path fill-rule="evenodd" clip-rule="evenodd" d="M95.0113 133.469V111.027H95.6735V133.469H95.0113Z" fill="white"/>
<path opacity="0.2" d="M64.12 119.727L73.6579 134.932L111.239 116.028V96.5543L64.12 119.727Z" fill="#1E283A"/>
<path fill-rule="evenodd" clip-rule="evenodd" d="M64.2286 123.693C64.2838 123.573 64.4259 123.521 64.546 123.576L73.0649 127.479C73.185 127.534 73.2377 127.675 73.1825 127.795C73.1273 127.915 72.9852 127.968 72.8651 127.913L64.3462 124.01C64.2261 123.955 64.1734 123.813 64.2286 123.693Z" fill="#1E283A"/>
<path d="M64.12 119.727L111.035 96.5543L118.209 104.441L72.2313 127.614L64.12 119.727Z" fill="#91AFF9"/>
<path d="M72.2313 127.614V130.46L117.842 108.141L118.209 104.441L72.2313 127.614Z" fill="#6586C9"/>
<path fill-rule="evenodd" clip-rule="evenodd" d="M15.7783 126.354C16.116 126.354 16.3897 126.627 16.3897 126.964V136.924C16.3897 137.261 16.116 137.534 15.7783 137.534C15.4406 137.534 15.1669 137.261 15.1669 136.924V126.964C15.1669 126.627 15.4406 126.354 15.7783 126.354Z" fill="#1E283A"/>
<path d="M22.5037 118.06C22.5037 128.265 19.569 130.419 15.9821 130.419C12.3952 130.419 9.46046 128.265 9.46046 118.06C9.46046 107.856 12.3952 95.1314 15.9821 95.1314C19.569 95.0907 22.5037 107.856 22.5037 118.06Z" fill="#91AFF9"/>
<path d="M19.6505 125.541C16.0636 125.541 13.1289 125.013 13.1289 114.808C13.1289 108.344 14.3109 100.213 16.0636 95.1315C16.0229 95.1315 16.0229 95.1315 15.9821 95.1315C12.3952 95.1315 9.46046 107.897 9.46046 118.061C9.46046 128.265 12.3952 130.42 15.9821 130.42C18.5092 130.42 20.7103 129.363 21.7701 125.216C21.1179 125.46 20.3842 125.541 19.6505 125.541Z" fill="#6586C9"/>
<path opacity="0.2" d="M15.5745 138.347C17.7131 138.347 19.4467 137.583 19.4467 136.64C19.4467 135.697 17.7131 134.932 15.5745 134.932C13.4359 134.932 11.7023 135.697 11.7023 136.64C11.7023 137.583 13.4359 138.347 15.5745 138.347Z" fill="#1E283A"/>
<path fill-rule="evenodd" clip-rule="evenodd" d="M32.1639 134.282C32.5016 134.282 32.7753 134.555 32.7753 134.891V144.852C32.7753 145.189 32.5016 145.462 32.1639 145.462C31.8263 145.462 31.5525 145.189 31.5525 144.852V134.891C31.5525 134.555 31.8263 134.282 32.1639 134.282Z" fill="#1E283A"/>
<path d="M38.8894 125.988C38.8894 136.192 35.9546 138.347 32.3677 138.347C28.7808 138.347 25.8461 136.192 25.8461 125.988C25.8461 115.784 28.7808 103.059 32.3677 103.059C35.9954 103.018 38.8894 115.784 38.8894 125.988Z" fill="#91AFF9"/>
<path d="M36.0362 133.469C32.4493 133.469 29.5145 131.314 29.5145 121.11C29.5145 114.646 30.6966 108.141 32.4493 103.059C32.4085 103.059 32.4085 103.059 32.3677 103.059C28.7808 103.059 25.8461 115.825 25.8461 125.988C25.8461 136.193 28.7808 138.347 32.3677 138.347C34.8949 138.347 37.0959 137.29 38.1557 133.143C37.5035 133.387 36.8106 133.469 36.0362 133.469Z" fill="#6586C9"/>
<path opacity="0.2" d="M31.9601 146.275C34.0987 146.275 35.8324 145.51 35.8324 144.567C35.8324 143.624 34.0987 142.86 31.9601 142.86C29.8216 142.86 28.0879 143.624 28.0879 144.567C28.0879 145.51 29.8216 146.275 31.9601 146.275Z" fill="#1E283A"/>
<path fill-rule="evenodd" clip-rule="evenodd" d="M49.6093 141.803C49.947 141.803 50.2207 142.076 50.2207 142.412V152.373C50.2207 152.71 49.947 152.983 49.6093 152.983C49.2717 152.983 48.9979 152.71 48.9979 152.373V142.412C48.9979 142.076 49.2717 141.803 49.6093 141.803Z" fill="#1E283A"/>
<path d="M56.3348 133.509C56.3348 143.713 53.4 145.868 49.8131 145.868C46.2262 145.868 43.2915 143.713 43.2915 133.509C43.2915 123.305 46.2262 110.58 49.8131 110.58C53.4 110.539 56.3348 123.305 56.3348 133.509Z" fill="#91AFF9"/>
<path d="M53.4816 140.99C49.8947 140.99 46.9599 138.835 46.9599 128.631C46.9599 122.167 48.142 115.662 49.8947 110.58C49.8539 110.58 49.8539 110.58 49.8131 110.58C46.2262 110.58 43.2915 123.346 43.2915 133.509C43.2915 143.714 46.2262 145.868 49.8131 145.868C52.3403 145.868 54.5413 144.811 55.6011 140.664C54.9489 140.908 54.2152 140.99 53.4816 140.99Z" fill="#6586C9"/>
<path opacity="0.2" d="M49.4055 153.796C51.5441 153.796 53.2778 153.031 53.2778 152.088C53.2778 151.145 51.5441 150.381 49.4055 150.381C47.267 150.381 45.5333 151.145 45.5333 152.088C45.5333 153.031 47.267 153.796 49.4055 153.796Z" fill="#1E283A"/>
</svg>
