<svg width="611" height="166" viewBox="0 0 611 166" fill="none" xmlns="http://www.w3.org/2000/svg">
<path d="M188.048 118.152C182.672 118.152 177.52 117.448 172.592 116.04C167.664 114.568 163.696 112.68 160.688 110.376L165.968 98.664C168.848 100.712 172.24 102.408 176.144 103.752C180.112 105.032 184.112 105.672 188.144 105.672C191.216 105.672 193.68 105.384 195.536 104.808C197.456 104.168 198.864 103.304 199.76 102.216C200.656 101.128 201.104 99.88 201.104 98.472C201.104 96.68 200.4 95.272 198.992 94.248C197.584 93.16 195.728 92.296 193.424 91.656C191.12 90.952 188.56 90.312 185.744 89.736C182.992 89.096 180.208 88.328 177.392 87.432C174.64 86.536 172.112 85.384 169.808 83.976C167.504 82.568 165.616 80.712 164.144 78.408C162.736 76.104 162.032 73.16 162.032 69.576C162.032 65.736 163.056 62.248 165.104 59.112C167.216 55.912 170.352 53.384 174.512 51.528C178.736 49.608 184.016 48.648 190.352 48.648C194.576 48.648 198.736 49.16 202.832 50.184C206.928 51.144 210.544 52.616 213.68 54.6L208.88 66.408C205.744 64.616 202.608 63.304 199.472 62.472C196.336 61.576 193.264 61.128 190.256 61.128C187.248 61.128 184.784 61.48 182.864 62.184C180.944 62.888 179.568 63.816 178.736 64.968C177.904 66.056 177.488 67.336 177.488 68.808C177.488 70.536 178.192 71.944 179.6 73.032C181.008 74.056 182.864 74.888 185.168 75.528C187.472 76.168 190 76.808 192.752 77.448C195.568 78.088 198.352 78.824 201.104 79.656C203.92 80.488 206.48 81.608 208.784 83.016C211.088 84.424 212.944 86.28 214.352 88.584C215.824 90.888 216.56 93.8 216.56 97.32C216.56 101.096 215.504 104.552 213.392 107.688C211.28 110.824 208.112 113.352 203.888 115.272C199.728 117.192 194.448 118.152 188.048 118.152ZM226.131 117V65.352H241.107V117H226.131ZM233.619 58.152C230.867 58.152 228.627 57.352 226.899 55.752C225.171 54.152 224.307 52.168 224.307 49.8C224.307 47.432 225.171 45.448 226.899 43.848C228.627 42.248 230.867 41.448 233.619 41.448C236.371 41.448 238.611 42.216 240.339 43.752C242.067 45.224 242.931 47.144 242.931 49.512C242.931 52.008 242.067 54.088 240.339 55.752C238.675 57.352 236.435 58.152 233.619 58.152ZM256.062 117V49.8H268.926L297.534 97.224H290.718L318.846 49.8H331.614L331.806 117H317.214L317.118 72.168H319.806L297.342 109.896H290.334L267.39 72.168H270.654V117H256.062ZM372.325 117.768C366.437 117.768 361.253 116.616 356.773 114.312C352.357 112.008 348.933 108.872 346.501 104.904C344.069 100.872 342.853 96.296 342.853 91.176C342.853 85.992 344.037 81.416 346.405 77.448C348.837 73.416 352.133 70.28 356.293 68.04C360.453 65.736 365.157 64.584 370.405 64.584C375.461 64.584 380.005 65.672 384.037 67.848C388.133 69.96 391.365 73.032 393.733 77.064C396.101 81.032 397.285 85.8 397.285 91.368C397.285 91.944 397.253 92.616 397.189 93.384C397.125 94.088 397.061 94.76 396.997 95.4H355.045V86.664H389.125L383.365 89.256C383.365 86.568 382.821 84.232 381.733 82.248C380.645 80.264 379.141 78.728 377.221 77.64C375.301 76.488 373.061 75.912 370.501 75.912C367.941 75.912 365.669 76.488 363.685 77.64C361.765 78.728 360.261 80.296 359.173 82.344C358.085 84.328 357.541 86.696 357.541 89.448V91.752C357.541 94.568 358.149 97.064 359.365 99.24C360.645 101.352 362.405 102.984 364.645 104.136C366.949 105.224 369.637 105.768 372.709 105.768C375.461 105.768 377.861 105.352 379.909 104.52C382.021 103.688 383.941 102.44 385.669 100.776L393.637 109.416C391.269 112.104 388.293 114.184 384.709 115.656C381.125 117.064 376.997 117.768 372.325 117.768ZM438.648 64.584C442.744 64.584 446.392 65.416 449.592 67.08C452.856 68.68 455.416 71.176 457.272 74.568C459.128 77.896 460.056 82.184 460.056 87.432V117H445.08V89.736C445.08 85.576 444.152 82.504 442.296 80.52C440.504 78.536 437.944 77.544 434.616 77.544C432.248 77.544 430.104 78.056 428.184 79.08C426.328 80.04 424.856 81.544 423.768 83.592C422.744 85.64 422.232 88.264 422.232 91.464V117H407.256V65.352H421.56V79.656L418.872 75.336C420.728 71.88 423.384 69.224 426.84 67.368C430.296 65.512 434.232 64.584 438.648 64.584ZM488.607 117V62.472H467.103V49.8H525.663V62.472H504.159V117H488.607ZM553.357 117.768C547.469 117.768 542.285 116.616 537.805 114.312C533.389 112.008 529.965 108.872 527.533 104.904C525.101 100.872 523.885 96.296 523.885 91.176C523.885 85.992 525.069 81.416 527.437 77.448C529.869 73.416 533.165 70.28 537.325 68.04C541.485 65.736 546.189 64.584 551.437 64.584C556.493 64.584 561.037 65.672 565.069 67.848C569.165 69.96 572.397 73.032 574.765 77.064C577.133 81.032 578.317 85.8 578.317 91.368C578.317 91.944 578.285 92.616 578.221 93.384C578.157 94.088 578.093 94.76 578.029 95.4H536.077V86.664H570.156L564.397 89.256C564.397 86.568 563.853 84.232 562.765 82.248C561.677 80.264 560.173 78.728 558.253 77.64C556.333 76.488 554.093 75.912 551.533 75.912C548.973 75.912 546.701 76.488 544.717 77.64C542.797 78.728 541.293 80.296 540.205 82.344C539.117 84.328 538.573 86.696 538.573 89.448V91.752C538.573 94.568 539.181 97.064 540.397 99.24C541.677 101.352 543.437 102.984 545.677 104.136C547.981 105.224 550.669 105.768 553.741 105.768C556.493 105.768 558.893 105.352 560.941 104.52C563.053 103.688 564.973 102.44 566.701 100.776L574.669 109.416C572.301 112.104 569.325 114.184 565.741 115.656C562.157 117.064 558.029 117.768 553.357 117.768ZM588.287 117V45.768H603.263V117H588.287Z" fill="#4F4A45"/>
<path d="M126 129.129L51.943 166L0 140.158V136.948L126 125.92V129.129Z" fill="#6586C9"/>
<path opacity="0.5" d="M60.5246 129.829L0 136.948V140.158L51.8605 165.959L60.5246 129.829Z" fill="#1E283A"/>
<path d="M126 125.92L51.943 162.79L0 136.948L74.9234 100.653L126 125.92Z" fill="#91AFF9"/>
<path d="M110.075 86.4566L111.395 87.0327L119.976 27.5707L118.656 27.0357L110.075 31.9326V86.4566Z" fill="#6586C9"/>
<path d="M111.395 87.0328L119.976 82.1359V27.5707L111.395 32.5087V87.0328Z" fill="#91AFF9"/>
<path fill-rule="evenodd" clip-rule="evenodd" d="M113.623 35.1528C113.89 35.1528 114.107 35.3692 114.107 35.6361V42.2201C114.107 42.487 113.89 42.7034 113.623 42.7034C113.355 42.7034 113.138 42.487 113.138 42.2201V35.6361C113.138 35.3692 113.355 35.1528 113.623 35.1528Z" fill="white"/>
<path fill-rule="evenodd" clip-rule="evenodd" d="M117.914 32.5604C118.181 32.5604 118.398 32.7767 118.398 33.0436V39.6277C118.398 39.8946 118.181 40.1109 117.914 40.1109C117.646 40.1109 117.429 39.8946 117.429 39.6277V33.0436C117.429 32.7767 117.646 32.5604 117.914 32.5604Z" fill="white"/>
<path fill-rule="evenodd" clip-rule="evenodd" d="M118.218 36.1091C118.343 36.3449 118.253 36.6375 118.017 36.7626L113.974 38.9024C113.737 39.0275 113.444 38.9378 113.319 38.702C113.193 38.4662 113.283 38.1737 113.519 38.0486L117.563 35.9088C117.799 35.7837 118.092 35.8734 118.218 36.1091Z" fill="white"/>
<path fill-rule="evenodd" clip-rule="evenodd" d="M113.623 65.7686C113.89 65.7686 114.107 65.985 114.107 66.2519V72.8359C114.107 73.1028 113.89 73.3192 113.623 73.3192C113.355 73.3192 113.138 73.1028 113.138 72.8359V66.2519C113.138 65.985 113.355 65.7686 113.623 65.7686Z" fill="white"/>
<path fill-rule="evenodd" clip-rule="evenodd" d="M116.775 67.5502C116.899 67.7866 116.808 68.0787 116.571 68.2025L113.971 69.5605C113.734 69.6843 113.442 69.5931 113.317 69.3566C113.193 69.1202 113.285 68.8282 113.522 68.7043L116.121 67.3463C116.358 67.2225 116.651 67.3138 116.775 67.5502Z" fill="white"/>
<path fill-rule="evenodd" clip-rule="evenodd" d="M118.218 63.7621C118.343 63.9979 118.253 64.2904 118.017 64.4155L113.974 66.5553C113.737 66.6804 113.444 66.5907 113.319 66.3549C113.193 66.1192 113.283 65.8266 113.519 65.7015L117.563 63.5617C117.799 63.4366 118.092 63.5263 118.218 63.7621Z" fill="white"/>
<path fill-rule="evenodd" clip-rule="evenodd" d="M118.218 70.593C118.343 70.8288 118.253 71.1213 118.017 71.2464L113.974 73.3863C113.737 73.5114 113.444 73.4216 113.319 73.1859C113.193 72.9501 113.283 72.6576 113.519 72.5325L117.563 70.3927C117.799 70.2676 118.092 70.3573 118.218 70.593Z" fill="white"/>
<path fill-rule="evenodd" clip-rule="evenodd" d="M113.623 74.9039C113.89 74.9039 114.107 75.1203 114.107 75.3872V81.9712C114.107 82.2381 113.89 82.4545 113.623 82.4545C113.355 82.4545 113.138 82.2381 113.138 81.9712V75.3872C113.138 75.1203 113.355 74.9039 113.623 74.9039Z" fill="white"/>
<path fill-rule="evenodd" clip-rule="evenodd" d="M118.216 79.725C118.343 79.9597 118.256 80.253 118.02 80.3799L113.977 82.5609C113.742 82.6879 113.448 82.6005 113.32 82.3657C113.193 82.1309 113.281 81.8377 113.516 81.7107L117.559 79.5298C117.795 79.4028 118.089 79.4902 118.216 79.725Z" fill="white"/>
<path fill-rule="evenodd" clip-rule="evenodd" d="M114.189 44.8637C114.614 44.1301 115.264 43.5167 116.076 43.5478C116.082 43.5481 116.088 43.5484 116.094 43.5489C116.899 43.6106 117.485 44.2812 117.835 45.0566C118.197 45.8596 118.38 46.9168 118.315 48.0501C118.25 49.177 117.967 50.2101 117.53 50.9729C117.106 51.713 116.456 52.3217 115.626 52.2911C115.62 52.2908 115.614 52.2905 115.607 52.29C114.802 52.2282 114.217 51.5577 113.867 50.7822C113.505 49.9792 113.321 48.9221 113.387 47.7887C113.452 46.6583 113.747 45.625 114.189 44.8637ZM115.027 45.3479C114.675 45.9548 114.412 46.835 114.354 47.8444C114.296 48.8509 114.463 49.7483 114.751 50.3856C115.047 51.0426 115.405 51.2997 115.672 51.3255C115.956 51.3308 116.333 51.1143 116.688 50.4933C117.035 49.8878 117.289 49.0075 117.347 47.9945C117.406 46.988 117.238 46.0905 116.951 45.4533C116.654 44.7961 116.296 44.5391 116.029 44.5134C115.768 44.5086 115.391 44.7207 115.027 45.3479Z" fill="white"/>
<path fill-rule="evenodd" clip-rule="evenodd" d="M118.752 53.5534C118.88 53.7882 118.792 54.0814 118.557 54.2084L116.043 55.5646L113.695 56.8795C113.462 57.0102 113.166 56.9274 113.035 56.6947C112.904 56.462 112.987 56.1674 113.221 56.0367L115.572 54.7199L115.579 54.7163L118.096 53.3583C118.331 53.2313 118.625 53.3186 118.752 53.5534Z" fill="white"/>
<path fill-rule="evenodd" clip-rule="evenodd" d="M115.975 54.658C116.242 54.658 116.459 54.8744 116.459 55.1413V62.6306C116.459 62.8975 116.242 63.1139 115.975 63.1139C115.707 63.1139 115.49 62.8975 115.49 62.6306V55.1413C115.49 54.8744 115.707 54.658 115.975 54.658Z" fill="white"/>
<path d="M61.9686 152.338L111.643 127.442V21.357L61.9686 46.2528V152.338Z" fill="#FFC77D"/>
<path d="M21.1238 25.8012V131.886L61.9686 152.338V46.2528L21.1238 25.8012Z" fill="#FFB94D"/>
<path d="M113.705 20.2871L61.9685 46.2529L20.5049 25.3074L72.6542 0L113.705 20.2871Z" fill="#FFE2C0"/>
<path d="M109.745 20.1636L62.4636 43.9484L24.9194 25.2662L72.8192 1.93405L109.745 20.1636Z" fill="white"/>
<path d="M109.745 20.1636L62.4636 43.9484L24.9194 25.2662L72.8192 1.93405L109.745 20.1636Z" fill="#FFF5EB"/>
<path d="M72.8192 4.23846L107.434 21.3158L109.745 20.1636L72.8192 1.93405L24.9194 25.2662L27.2711 26.4184L72.8192 4.23846Z" fill="#E2BF9C"/>
<path d="M72.8192 1.93405L72.6542 2.01635V4.27961L72.8192 4.23846L107.434 21.3158L109.745 20.1636L72.8192 1.93405Z" fill="#CCA989"/>
<path d="M62.1335 46.2528V50.121L113.705 24.1552V20.287L62.1335 46.2528Z" fill="#FFEDDC"/>
<path d="M20.5049 25.3074V29.1755L62.1336 50.121V46.2528L20.5049 25.3074Z" fill="#F7D6B5"/>
<path d="M61.9686 82.8354L21.2888 62.1369L18.9784 63.2479L61.6798 84.8518L113.705 58.8037L111.766 57.8572L61.9686 82.8354Z" fill="#FFE2C0"/>
<path d="M61.7211 84.7695V88.6376L113.705 62.6718V58.8037L61.7211 84.7695Z" fill="#FFEDDC"/>
<path d="M18.9784 63.2479V67.1161L61.721 88.6376V84.7695L18.9784 63.2479Z" fill="#F7D6B5"/>
<path opacity="0.6" d="M61.9686 82.8354L21.2888 62.1368L18.9784 63.2479L61.556 84.7695L61.721 84.6872L61.9686 82.8354Z" fill="#E2BF9C"/>
<path d="M61.9686 116.661L21.2888 95.9623L18.9784 97.1145L61.556 118.595L113.705 92.6291L111.766 91.6827L61.9686 116.661Z" fill="#FFE2C0"/>
<path d="M61.7211 118.595V122.463L113.705 96.4973V92.6292L61.7211 118.595Z" fill="#FFEDDC"/>
<path d="M18.9784 97.1145V100.941L61.721 122.463V118.595L18.9784 97.1145Z" fill="#F7D6B5"/>
<path opacity="0.6" d="M62.1336 116.579L61.9686 116.661L21.2888 95.9623L18.9784 97.1145L61.556 118.595L61.721 118.513L62.1336 116.579Z" fill="#E2BF9C"/>
<path d="M55.7387 37.8171L33.9136 26.8711V26.1715L93.943 17.7357L94.0668 18.4353L55.7387 37.8171ZM39.8959 26.8711L55.7387 34.7308L87.9607 18.4353L72.4067 10.7402L39.8959 26.8711Z" fill="#DBD2CA"/>
<path opacity="0.5" d="M55.6975 34.7308L39.8959 26.8711L42.2063 25.76L33.9136 26.1715V26.8711L55.6975 37.8171V34.7308Z" fill="#B7ADA5"/>
<path d="M91.0138 17.7357L55.7388 35.5949L36.8016 26.1715L72.4067 8.5181L91.0138 17.7357Z" fill="#91AFF9"/>
<path d="M55.7387 37.1175L33.666 26.1715L72.4067 6.99554L94.1081 17.7358L55.7387 37.1175ZM39.8959 26.1715L55.7387 34.0312L87.9607 17.7358L72.4067 10.0407L39.8959 26.1715Z" fill="white"/>
<path fill-rule="evenodd" clip-rule="evenodd" d="M74.9668 9.13537C74.9668 7.95277 75.9162 6.95654 77.1513 6.95654C78.337 6.95654 79.3358 7.90352 79.3358 9.13537V11.1517C79.3358 11.3096 79.2075 11.4376 79.0491 11.4376C78.8908 11.4376 78.7625 11.3096 78.7625 11.1517V9.13537C78.7625 8.2274 78.0285 7.52837 77.1513 7.52837C76.241 7.52837 75.5401 8.26045 75.5401 9.13537V13.1269C75.5401 13.2848 75.4118 13.4128 75.2535 13.4128C75.0951 13.4128 74.9668 13.2848 74.9668 13.1269V9.13537Z" fill="#EDCDAE"/>
<path fill-rule="evenodd" clip-rule="evenodd" d="M75.0367 12.2204C75.1058 12.0783 75.2773 12.0189 75.4197 12.0878L78.1427 13.4046C78.2852 13.4735 78.3447 13.6445 78.2756 13.7866C78.2065 13.9287 78.035 13.9881 77.8926 13.9192L75.1696 12.6024C75.0271 12.5335 74.9676 12.3624 75.0367 12.2204Z" fill="#EDCDAE"/>
<path fill-rule="evenodd" clip-rule="evenodd" d="M77.9374 10.7814C77.9374 9.59877 78.8868 8.60254 80.1219 8.60254C81.3075 8.60254 82.3064 9.54951 82.3064 10.7814V12.7977C82.3064 12.9556 82.178 13.0836 82.0197 13.0836C81.8614 13.0836 81.7331 12.9556 81.7331 12.7977V10.7814C81.7331 9.8734 80.9991 9.17436 80.1219 9.17436C79.2115 9.17436 78.5107 9.90644 78.5107 10.7814V14.7729C78.5107 14.9308 78.3823 15.0588 78.224 15.0588C78.0657 15.0588 77.9374 14.9308 77.9374 14.7729V10.7814Z" fill="#FFE2C0"/>
<path d="M83.3811 25.1839V25.6777L87.5068 27.7353L95.2632 23.826L91.22 21.8508L83.3811 25.1839Z" fill="#304E89"/>
<path d="M95.9646 19.9579L91.22 21.8508L95.2632 23.826L96.3359 20.2871L95.9646 19.9579Z" fill="#304E89"/>
<path d="M94.9332 23.4145L87.4243 27.2003L83.3811 25.1839L89.0746 22.3857L90.9725 21.4392L94.9332 23.4145Z" fill="#4A6CD6"/>
<path d="M92.0038 17.9826L90.9724 21.4393L94.9331 23.4145L95.9646 19.9578L92.0038 17.9826Z" fill="#3C5FB5"/>
<path d="M66.7544 33.8255V34.3193L70.8801 36.3768L78.6365 32.4675L74.5933 30.4512L66.7544 33.8255Z" fill="#304E89"/>
<path d="M79.3379 28.5583L74.5933 30.4512L78.6365 32.4676L79.7092 28.9286L79.3379 28.5583Z" fill="#304E89"/>
<path d="M78.3065 32.0149L70.7976 35.8418L66.7544 33.8255L72.4479 31.0273L74.3457 30.0808L78.3065 32.0149Z" fill="#4A6CD6"/>
<path d="M75.3771 26.6242L74.3457 30.0808L78.3064 32.0149L79.3378 28.5583L75.3771 26.6242Z" fill="#3C5FB5"/>
<path d="M65.1454 57.24L73.7269 52.9603V75.5107L65.1454 79.7903V57.24Z" fill="#D2E1FF"/>
<path d="M73.3968 53.4953V75.3049L65.5167 79.2553V57.4457L73.3968 53.4953ZM74.057 52.4254L64.8153 57.0342V80.3664L74.057 75.7575V52.4254Z" fill="white"/>
<path fill-rule="evenodd" clip-rule="evenodd" d="M69.3898 77.527V54.7709H70.06V77.527H69.3898Z" fill="white"/>
<path d="M81.2771 49.0922L89.8586 44.8126V67.404L81.2771 71.6837V49.0922Z" fill="#D2E1FF"/>
<path d="M89.5286 45.3475V67.1571L81.6484 71.1075V49.2979L89.5286 45.3475ZM90.1887 44.2776L80.947 48.8864V72.2186L90.1887 67.6098V44.2776Z" fill="white"/>
<path fill-rule="evenodd" clip-rule="evenodd" d="M85.5215 69.3792V46.6643H86.1918V69.3792H85.5215Z" fill="white"/>
<path d="M97.1199 41.1914L105.66 36.9117V59.5032L97.1199 63.7828V41.1914Z" fill="#D2E1FF"/>
<path d="M105.33 37.4878V59.2974L97.4499 63.2479V41.4382L105.33 37.4878ZM105.99 36.3768L96.7485 40.9856V64.3178L105.99 59.7089V36.3768Z" fill="white"/>
<path fill-rule="evenodd" clip-rule="evenodd" d="M101.364 61.4784V38.7635H102.035V61.4784H101.364Z" fill="white"/>
<path d="M106.031 59.6266L96.7898 64.3178L98.5639 65.1819L107.806 60.532L106.031 59.6266Z" fill="#FFE2C0"/>
<path opacity="0.2" d="M105.99 36.3768L106.031 59.6266L107.063 60.1616V36.8706L106.197 36.4591L105.99 36.3768Z" fill="#1E283A"/>
<path fill-rule="evenodd" clip-rule="evenodd" d="M105.855 59.5212C105.913 59.4011 106.058 59.351 106.178 59.4092L108.901 60.726C108.985 60.7663 109.038 60.8505 109.038 60.9429C109.038 61.0352 108.986 61.1197 108.902 61.1604L99.9084 65.5634C99.8422 65.5958 99.7648 65.5964 99.6981 65.565L97.4289 64.4951C97.308 64.438 97.2563 64.294 97.3135 64.1733C97.3706 64.0527 97.5151 64.0011 97.636 64.0582L99.7997 65.0783L108.243 60.9448L105.967 59.8441C105.847 59.7858 105.796 59.6413 105.855 59.5212Z" fill="#1E283A"/>
<path fill-rule="evenodd" clip-rule="evenodd" d="M105.855 50.962C105.913 50.8419 106.058 50.7917 106.178 50.8499L108.901 52.1668C108.985 52.2071 109.038 52.2912 109.038 52.3836C109.038 52.476 108.986 52.5604 108.902 52.6011L99.9084 57.0042C99.841 57.0371 99.7622 57.0371 99.6949 57.0042L97.4257 55.8931C97.3056 55.8343 97.256 55.6895 97.315 55.5697C97.374 55.4499 97.5191 55.4005 97.6392 55.4593L99.8016 56.5181L108.243 52.3855L105.967 51.2848C105.847 51.2266 105.796 51.082 105.855 50.962Z" fill="#1E283A"/>
<path d="M97.8625 39.0104H95.5934V64.8116H97.8625V39.0104Z" fill="#FFC77D"/>
<path fill-rule="evenodd" clip-rule="evenodd" d="M108.796 52.2634C108.863 52.2634 108.917 52.3175 108.917 52.3842V60.9434C108.917 61.0102 108.863 61.0642 108.796 61.0642C108.729 61.0642 108.675 61.0102 108.675 60.9434V52.3842C108.675 52.3175 108.729 52.2634 108.796 52.2634Z" fill="#1E283A"/>
<path fill-rule="evenodd" clip-rule="evenodd" d="M105.701 53.8682C105.768 53.8682 105.823 53.9223 105.823 53.989V62.5483C105.823 62.615 105.768 62.6691 105.701 62.6691C105.635 62.6691 105.58 62.615 105.58 62.5483V53.989C105.58 53.9223 105.635 53.8682 105.701 53.8682Z" fill="#1E283A"/>
<path fill-rule="evenodd" clip-rule="evenodd" d="M104.752 54.3621C104.819 54.3621 104.874 54.4162 104.874 54.4829V63.0833C104.874 63.15 104.819 63.2041 104.752 63.2041C104.686 63.2041 104.631 63.15 104.631 63.0833V54.4829C104.631 54.4162 104.686 54.3621 104.752 54.3621Z" fill="#1E283A"/>
<path fill-rule="evenodd" clip-rule="evenodd" d="M103.804 54.6913C103.871 54.6913 103.925 54.7454 103.925 54.8121V63.4125C103.925 63.4792 103.871 63.5333 103.804 63.5333C103.737 63.5333 103.682 63.4792 103.682 63.4125V54.8121C103.682 54.7454 103.737 54.6913 103.804 54.6913Z" fill="#1E283A"/>
<path fill-rule="evenodd" clip-rule="evenodd" d="M102.855 55.2262C102.922 55.2262 102.976 55.2803 102.976 55.347V63.9063C102.976 63.973 102.922 64.0271 102.855 64.0271C102.788 64.0271 102.734 63.973 102.734 63.9063V55.347C102.734 55.2803 102.788 55.2262 102.855 55.2262Z" fill="#1E283A"/>
<path fill-rule="evenodd" clip-rule="evenodd" d="M101.823 55.5966C101.89 55.5966 101.944 55.6506 101.944 55.7174V64.2766C101.944 64.3433 101.89 64.3974 101.823 64.3974C101.756 64.3974 101.702 64.3433 101.702 64.2766V55.7174C101.702 55.6506 101.756 55.5966 101.823 55.5966Z" fill="#1E283A"/>
<path fill-rule="evenodd" clip-rule="evenodd" d="M100.874 56.1315C100.941 56.1315 100.995 56.1856 100.995 56.2523V64.8116C100.995 64.8783 100.941 64.9324 100.874 64.9324C100.807 64.9324 100.753 64.8783 100.753 64.8116V56.2523C100.753 56.1856 100.807 56.1315 100.874 56.1315Z" fill="#1E283A"/>
<path fill-rule="evenodd" clip-rule="evenodd" d="M99.9254 56.6681C99.9914 56.6681 100.045 56.7215 100.045 56.7873V65.1408C100.045 65.2066 99.9914 65.26 99.9254 65.26C99.8594 65.26 99.8059 65.2066 99.8059 65.1408V56.7873C99.8059 56.7215 99.8594 56.6681 99.9254 56.6681Z" fill="#1E283A"/>
<path fill-rule="evenodd" clip-rule="evenodd" d="M99.0177 56.2961C99.0846 56.2961 99.1389 56.3502 99.1389 56.417V65.0174C99.1389 65.0841 99.0846 65.1382 99.0177 65.1382C98.9508 65.1382 98.8966 65.0841 98.8966 65.0174V56.417C98.8966 56.3502 98.9508 56.2961 99.0177 56.2961Z" fill="#1E283A"/>
<path fill-rule="evenodd" clip-rule="evenodd" d="M98.2338 55.9258C98.3007 55.9258 98.3549 55.9799 98.3549 56.0466V64.6058C98.3549 64.6726 98.3007 64.7267 98.2338 64.7267C98.1669 64.7267 98.1127 64.6726 98.1127 64.6058V56.0466C98.1127 55.9799 98.1669 55.9258 98.2338 55.9258Z" fill="#1E283A"/>
<path fill-rule="evenodd" clip-rule="evenodd" d="M107.806 51.6799C107.877 51.6799 107.934 51.7373 107.934 51.8081V61.4784C107.934 61.5493 107.877 61.6067 107.806 61.6067C107.735 61.6067 107.677 61.5493 107.677 61.4784V51.8081C107.677 51.7373 107.735 51.6799 107.806 51.6799Z" fill="#1E283A"/>
<path fill-rule="evenodd" clip-rule="evenodd" d="M106.815 51.1935C106.882 51.1935 106.936 51.2476 106.936 51.3143V61.8488C106.936 61.9155 106.882 61.9696 106.815 61.9696C106.748 61.9696 106.694 61.9155 106.694 61.8488V51.3143C106.694 51.2476 106.748 51.1935 106.815 51.1935Z" fill="#1E283A"/>
<path d="M90.2711 67.5275L81.0294 72.2186L82.8035 73.124L92.0451 68.4328L90.2711 67.5275Z" fill="#FFE2C0"/>
<path opacity="0.2" d="M90.2711 44.3188V67.5275L91.3026 68.0625V44.8126L90.4361 44.3599L90.2711 44.3188Z" fill="#1E283A"/>
<path fill-rule="evenodd" clip-rule="evenodd" d="M90.0944 67.4221C90.1528 67.302 90.2977 67.2519 90.4181 67.3101L93.1411 68.6269C93.2242 68.6671 93.2771 68.7509 93.2776 68.8431C93.2781 68.9352 93.226 69.0196 93.1433 69.0606L84.1905 73.5049C84.1234 73.5381 84.0447 73.5386 83.9773 73.5062L81.6669 72.3951C81.5464 72.3372 81.4958 72.1928 81.5539 72.0725C81.612 71.9523 81.7568 71.9019 81.8773 71.9598L84.0808 73.0195L92.4859 68.8472L90.2067 67.7449C90.0863 67.6867 90.036 67.5422 90.0944 67.4221Z" fill="#1E283A"/>
<path fill-rule="evenodd" clip-rule="evenodd" d="M90.0944 58.8628C90.1528 58.7428 90.2977 58.6926 90.4181 58.7508L93.1411 60.0676C93.2243 60.1079 93.2773 60.192 93.2776 60.2843C93.2779 60.3766 93.2255 60.461 93.1425 60.5018L84.1897 64.9049C84.1228 64.9377 84.0445 64.9381 83.9773 64.9058L81.6669 63.7947C81.5464 63.7368 81.4958 63.5923 81.5539 63.4721C81.612 63.3519 81.7568 63.3015 81.8773 63.3594L84.0813 64.4193L92.4838 60.2869L90.2067 59.1857C90.0863 59.1275 90.036 58.9829 90.0944 58.8628Z" fill="#1E283A"/>
<path d="M82.1022 46.9113H79.833V72.7124H82.1022V46.9113Z" fill="#FFC77D"/>
<path fill-rule="evenodd" clip-rule="evenodd" d="M93.0353 60.1642C93.1022 60.1642 93.1564 60.2183 93.1564 60.2851V68.8443C93.1564 68.911 93.1022 68.9651 93.0353 68.9651C92.9684 68.9651 92.9142 68.911 92.9142 68.8443V60.2851C92.9142 60.2183 92.9684 60.1642 93.0353 60.1642Z" fill="#1E283A"/>
<path fill-rule="evenodd" clip-rule="evenodd" d="M89.9411 61.7691C90.008 61.7691 90.0622 61.8232 90.0622 61.8899V70.4492C90.0622 70.5159 90.008 70.57 89.9411 70.57C89.8742 70.57 89.8199 70.5159 89.8199 70.4492V61.8899C89.8199 61.8232 89.8742 61.7691 89.9411 61.7691Z" fill="#1E283A"/>
<path fill-rule="evenodd" clip-rule="evenodd" d="M88.9921 62.3041C89.059 62.3041 89.1132 62.3582 89.1132 62.4249V70.9841C89.1132 71.0509 89.059 71.105 88.9921 71.105C88.9252 71.105 88.871 71.0509 88.871 70.9841V62.4249C88.871 62.3582 88.9252 62.3041 88.9921 62.3041Z" fill="#1E283A"/>
<path fill-rule="evenodd" clip-rule="evenodd" d="M88.0433 62.6333C88.1101 62.6333 88.1644 62.6874 88.1644 62.7541V71.3134C88.1644 71.3801 88.1101 71.4342 88.0433 71.4342C87.9764 71.4342 87.9221 71.3801 87.9221 71.3134V62.7541C87.9221 62.6874 87.9764 62.6333 88.0433 62.6333Z" fill="#1E283A"/>
<path fill-rule="evenodd" clip-rule="evenodd" d="M87.0943 63.1271C87.1612 63.1271 87.2154 63.1812 87.2154 63.2479V71.8483C87.2154 71.915 87.1612 71.9691 87.0943 71.9691C87.0274 71.9691 86.9731 71.915 86.9731 71.8483V63.2479C86.9731 63.1812 87.0274 63.1271 87.0943 63.1271Z" fill="#1E283A"/>
<path fill-rule="evenodd" clip-rule="evenodd" d="M86.0629 63.4974C86.1298 63.4974 86.184 63.5515 86.184 63.6183V72.2186C86.184 72.2854 86.1298 72.3395 86.0629 72.3395C85.996 72.3395 85.9418 72.2854 85.9418 72.2186V63.6183C85.9418 63.5515 85.996 63.4974 86.0629 63.4974Z" fill="#1E283A"/>
<path fill-rule="evenodd" clip-rule="evenodd" d="M85.1552 64.0323C85.2221 64.0323 85.2763 64.0864 85.2763 64.1532V72.7124C85.2763 72.7791 85.2221 72.8332 85.1552 72.8332C85.0883 72.8332 85.0341 72.7791 85.0341 72.7124V64.1532C85.0341 64.0864 85.0883 64.0323 85.1552 64.0323Z" fill="#1E283A"/>
<path fill-rule="evenodd" clip-rule="evenodd" d="M84.165 64.569C84.231 64.569 84.2845 64.6223 84.2845 64.6882V73.0417C84.2845 73.1075 84.231 73.1608 84.165 73.1608C84.099 73.1608 84.0455 73.1075 84.0455 73.0417V64.6882C84.0455 64.6223 84.099 64.569 84.165 64.569Z" fill="#1E283A"/>
<path fill-rule="evenodd" clip-rule="evenodd" d="M83.2986 64.2381C83.3655 64.2381 83.4198 64.2922 83.4198 64.3589V72.9182C83.4198 72.9849 83.3655 73.039 83.2986 73.039C83.2317 73.039 83.1775 72.9849 83.1775 72.9182V64.3589C83.1775 64.2922 83.2317 64.2381 83.2986 64.2381Z" fill="#1E283A"/>
<path fill-rule="evenodd" clip-rule="evenodd" d="M82.4734 63.8266C82.5403 63.8266 82.5946 63.8807 82.5946 63.9474V72.5067C82.5946 72.5734 82.5403 72.6275 82.4734 72.6275C82.4065 72.6275 82.3523 72.5734 82.3523 72.5067V63.9474C82.3523 63.8807 82.4065 63.8266 82.4734 63.8266Z" fill="#1E283A"/>
<path fill-rule="evenodd" clip-rule="evenodd" d="M92.0452 59.5807C92.1162 59.5807 92.1738 59.6381 92.1738 59.709V69.3793C92.1738 69.4501 92.1162 69.5075 92.0452 69.5075C91.9742 69.5075 91.9166 69.4501 91.9166 69.3793V59.709C91.9166 59.6381 91.9742 59.5807 92.0452 59.5807Z" fill="#1E283A"/>
<path fill-rule="evenodd" clip-rule="evenodd" d="M91.055 59.0944C91.1219 59.0944 91.1761 59.1485 91.1761 59.2152V69.7908C91.1761 69.8575 91.1219 69.9116 91.055 69.9116C90.9881 69.9116 90.9338 69.8575 90.9338 69.7908V59.2152C90.9338 59.1485 90.9881 59.0944 91.055 59.0944Z" fill="#1E283A"/>
<path d="M74.0982 75.6341L64.8566 80.3252L66.6306 81.1894L75.9135 76.5394L74.0982 75.6341Z" fill="#FFE2C0"/>
<path opacity="0.2" d="M74.0983 52.3842V75.6341L75.1297 76.169V52.878L74.2633 52.4665L74.0983 52.3842Z" fill="#1E283A"/>
<path fill-rule="evenodd" clip-rule="evenodd" d="M73.9215 75.5287C73.9799 75.4086 74.1248 75.3584 74.2452 75.4167L76.9682 76.7335C77.0515 76.7737 77.1045 76.8578 77.1048 76.9501C77.1051 77.0424 77.0527 77.1268 76.9697 77.1676L68.0168 81.5707C67.9511 81.603 67.8741 81.6039 67.8077 81.5731L65.4972 80.5032C65.3759 80.447 65.3232 80.3033 65.3795 80.1823C65.4359 80.0613 65.5799 80.0087 65.7013 80.0649L67.9065 81.0861L76.311 76.9527L74.0338 75.8515C73.9134 75.7933 73.8632 75.6487 73.9215 75.5287Z" fill="#1E283A"/>
<path fill-rule="evenodd" clip-rule="evenodd" d="M73.9215 66.9694C73.9799 66.8493 74.1248 66.7992 74.2452 66.8574L76.9682 68.1742C77.0515 68.2145 77.1045 68.2985 77.1048 68.3908C77.1051 68.4831 77.0527 68.5675 76.9697 68.6083L68.0168 73.0114C67.9499 73.0443 67.8716 73.0447 67.8045 73.0124L65.494 71.9013C65.3735 71.8433 65.3229 71.6989 65.381 71.5787C65.4391 71.4585 65.5839 71.408 65.7045 71.466L67.9085 72.5259L76.311 68.3935L74.0338 67.2922C73.9134 67.234 73.8632 67.0895 73.9215 66.9694Z" fill="#1E283A"/>
<path d="M65.9293 55.0178H63.6602V80.819H65.9293V55.0178Z" fill="#FFC77D"/>
<path fill-rule="evenodd" clip-rule="evenodd" d="M76.8625 68.2708C76.9294 68.2708 76.9836 68.3249 76.9836 68.3916V76.9509C76.9836 77.0176 76.9294 77.0717 76.8625 77.0717C76.7956 77.0717 76.7413 77.0176 76.7413 76.9509V68.3916C76.7413 68.3249 76.7956 68.2708 76.8625 68.2708Z" fill="#1E283A"/>
<path fill-rule="evenodd" clip-rule="evenodd" d="M73.7682 69.8757C73.8351 69.8757 73.8894 69.9298 73.8894 69.9965V78.5557C73.8894 78.6225 73.8351 78.6765 73.7682 78.6765C73.7013 78.6765 73.6471 78.6225 73.6471 78.5557V69.9965C73.6471 69.9298 73.7013 69.8757 73.7682 69.8757Z" fill="#1E283A"/>
<path fill-rule="evenodd" clip-rule="evenodd" d="M72.8605 70.3695C72.9274 70.3695 72.9816 70.4236 72.9816 70.4903V79.0907C72.9816 79.1574 72.9274 79.2115 72.8605 79.2115C72.7936 79.2115 72.7394 79.1574 72.7394 79.0907V70.4903C72.7394 70.4236 72.7936 70.3695 72.8605 70.3695Z" fill="#1E283A"/>
<path fill-rule="evenodd" clip-rule="evenodd" d="M71.8704 70.6987C71.9373 70.6987 71.9915 70.7528 71.9915 70.8195V79.4199C71.9915 79.4867 71.9373 79.5408 71.8704 79.5408C71.8035 79.5408 71.7493 79.4867 71.7493 79.4199V70.8195C71.7493 70.7528 71.8035 70.6987 71.8704 70.6987Z" fill="#1E283A"/>
<path fill-rule="evenodd" clip-rule="evenodd" d="M70.9627 71.2336C71.0296 71.2336 71.0838 71.2877 71.0838 71.3545V79.9137C71.0838 79.9804 71.0296 80.0345 70.9627 80.0345C70.8958 80.0345 70.8416 79.9804 70.8416 79.9137V71.3545C70.8416 71.2877 70.8958 71.2336 70.9627 71.2336Z" fill="#1E283A"/>
<path fill-rule="evenodd" clip-rule="evenodd" d="M69.8901 71.604C69.957 71.604 70.0112 71.6581 70.0112 71.7248V80.2841C70.0112 80.3508 69.957 80.4049 69.8901 80.4049C69.8232 80.4049 69.7689 80.3508 69.7689 80.2841V71.7248C69.7689 71.6581 69.8232 71.604 69.8901 71.604Z" fill="#1E283A"/>
<path fill-rule="evenodd" clip-rule="evenodd" d="M68.9823 72.139C69.0492 72.139 69.1035 72.1931 69.1035 72.2598V80.819C69.1035 80.8858 69.0492 80.9399 68.9823 80.9399C68.9154 80.9399 68.8612 80.8858 68.8612 80.819V72.2598C68.8612 72.1931 68.9154 72.139 68.9823 72.139Z" fill="#1E283A"/>
<path fill-rule="evenodd" clip-rule="evenodd" d="M67.9922 72.6755C68.0582 72.6755 68.1117 72.7289 68.1117 72.7947V81.1482C68.1117 81.2141 68.0582 81.2674 67.9922 81.2674C67.9262 81.2674 67.8727 81.2141 67.8727 81.1482V72.7947C67.8727 72.7289 67.9262 72.6755 67.9922 72.6755Z" fill="#1E283A"/>
<path fill-rule="evenodd" clip-rule="evenodd" d="M67.1258 72.3035C67.1927 72.3035 67.2469 72.3576 67.2469 72.4243V81.0247C67.2469 81.0915 67.1927 81.1456 67.1258 81.1456C67.0589 81.1456 67.0046 81.0915 67.0046 81.0247V72.4243C67.0046 72.3576 67.0589 72.3035 67.1258 72.3035Z" fill="#1E283A"/>
<path fill-rule="evenodd" clip-rule="evenodd" d="M66.3006 71.9332C66.3675 71.9332 66.4217 71.9873 66.4217 72.054V80.6133C66.4217 80.68 66.3675 80.7341 66.3006 80.7341C66.2337 80.7341 66.1794 80.68 66.1794 80.6133V72.054C66.1794 71.9873 66.2337 71.9332 66.3006 71.9332Z" fill="#1E283A"/>
<path fill-rule="evenodd" clip-rule="evenodd" d="M75.8724 67.6873C75.9434 67.6873 76.001 67.7447 76.001 67.8155V77.4858C76.001 77.5567 75.9434 77.6141 75.8724 77.6141C75.8014 77.6141 75.7438 77.5567 75.7438 77.4858V67.8155C75.7438 67.7447 75.8014 67.6873 75.8724 67.6873Z" fill="#1E283A"/>
<path fill-rule="evenodd" clip-rule="evenodd" d="M74.8821 67.2009C74.949 67.2009 75.0032 67.255 75.0032 67.3217V77.8562C75.0032 77.9229 74.949 77.977 74.8821 77.977C74.8152 77.977 74.761 77.9229 74.761 77.8562V67.3217C74.761 67.255 74.8152 67.2009 74.8821 67.2009Z" fill="#1E283A"/>
<path d="M65.1454 91.5181L73.7269 87.2797V109.83L65.1454 114.11V91.5181Z" fill="#D2E1FF"/>
<path d="M73.3968 87.8146V109.624L65.5167 113.575V91.765L73.3968 87.8146ZM74.057 86.7447L64.8153 91.3535V114.686L74.057 110.077V86.7447Z" fill="white"/>
<path fill-rule="evenodd" clip-rule="evenodd" d="M69.3898 111.846V89.0903H70.06V111.846H69.3898Z" fill="white"/>
<path d="M81.2771 83.4115L89.8586 79.1319V101.723L81.2771 105.962V83.4115Z" fill="#D2E1FF"/>
<path d="M89.5286 79.6668V101.476L81.6484 105.427V83.6172L89.5286 79.6668ZM90.1887 78.5969L80.947 83.2057V106.538L90.1887 101.929V78.5969Z" fill="white"/>
<path fill-rule="evenodd" clip-rule="evenodd" d="M85.5215 103.699V80.9836H86.1918V103.699H85.5215Z" fill="white"/>
<path d="M97.1199 75.5107L105.66 71.2311V93.8225L97.1199 98.1022V75.5107Z" fill="#D2E1FF"/>
<path d="M105.33 71.766V93.5756L97.4499 97.5261V75.7164L105.33 71.766ZM105.99 70.6961L96.7898 75.3049V98.6371L106.031 94.0283V70.6961H105.99Z" fill="white"/>
<path fill-rule="evenodd" clip-rule="evenodd" d="M101.364 95.7977V73.0828H102.035V95.7977H101.364Z" fill="white"/>
<path d="M106.031 93.946L96.7898 98.6371L98.5639 99.5013L107.806 94.8513L106.031 93.946Z" fill="#FFE2C0"/>
<path opacity="0.2" d="M105.99 70.6961L106.031 93.946L107.063 94.4809V71.1899L106.197 70.7373L105.99 70.6961Z" fill="#1E283A"/>
<path fill-rule="evenodd" clip-rule="evenodd" d="M105.855 93.8406C105.913 93.7205 106.058 93.6703 106.178 93.7285L108.901 95.0454C108.985 95.0857 109.038 95.1698 109.038 95.2622C109.038 95.3546 108.986 95.439 108.902 95.4797L99.9084 99.8828C99.841 99.9157 99.7622 99.9157 99.6949 99.8828L97.4257 98.7717C97.3056 98.7129 97.256 98.5681 97.315 98.4483C97.374 98.3285 97.5191 98.2791 97.6392 98.3379L99.8016 99.3967L108.243 95.2641L105.967 94.1634C105.847 94.1052 105.796 93.9606 105.855 93.8406Z" fill="#1E283A"/>
<path fill-rule="evenodd" clip-rule="evenodd" d="M105.853 85.284C105.91 85.1632 106.055 85.1113 106.176 85.168L108.899 86.4437C108.983 86.4831 109.037 86.5671 109.038 86.6599C109.039 86.7526 108.987 86.8377 108.903 86.8789L99.9092 91.3231C99.8417 91.3565 99.7625 91.3566 99.6949 91.3235L97.4257 90.2124C97.3056 90.1536 97.256 90.0088 97.315 89.8891C97.374 89.7693 97.5191 89.7198 97.6392 89.7786L99.8011 90.8372L108.238 86.6682L105.97 85.6054C105.849 85.5487 105.797 85.4048 105.853 85.284Z" fill="#1E283A"/>
<path d="M97.8625 73.3297H95.5934V99.1309H97.8625V73.3297Z" fill="#FFC77D"/>
<path fill-rule="evenodd" clip-rule="evenodd" d="M108.796 86.5416C108.863 86.5416 108.917 86.5957 108.917 86.6624V95.2628C108.917 95.3295 108.863 95.3836 108.796 95.3836C108.729 95.3836 108.675 95.3295 108.675 95.2628V86.6624C108.675 86.5957 108.729 86.5416 108.796 86.5416Z" fill="#1E283A"/>
<path fill-rule="evenodd" clip-rule="evenodd" d="M105.701 88.1876C105.768 88.1876 105.823 88.2417 105.823 88.3084V96.8676C105.823 96.9343 105.768 96.9884 105.701 96.9884C105.635 96.9884 105.58 96.9343 105.58 96.8676V88.3084C105.58 88.2417 105.635 88.1876 105.701 88.1876Z" fill="#1E283A"/>
<path fill-rule="evenodd" clip-rule="evenodd" d="M104.752 88.6814C104.819 88.6814 104.874 88.7355 104.874 88.8022V97.4026C104.874 97.4693 104.819 97.5234 104.752 97.5234C104.686 97.5234 104.631 97.4693 104.631 97.4026V88.8022C104.631 88.7355 104.686 88.6814 104.752 88.6814Z" fill="#1E283A"/>
<path fill-rule="evenodd" clip-rule="evenodd" d="M103.804 89.0106C103.871 89.0106 103.925 89.0647 103.925 89.1314V97.7318C103.925 97.7986 103.871 97.8526 103.804 97.8526C103.737 97.8526 103.682 97.7986 103.682 97.7318V89.1314C103.682 89.0647 103.737 89.0106 103.804 89.0106Z" fill="#1E283A"/>
<path fill-rule="evenodd" clip-rule="evenodd" d="M102.855 89.5455C102.922 89.5455 102.976 89.5996 102.976 89.6663V98.2256C102.976 98.2923 102.922 98.3464 102.855 98.3464C102.788 98.3464 102.734 98.2923 102.734 98.2256V89.6663C102.734 89.5996 102.788 89.5455 102.855 89.5455Z" fill="#1E283A"/>
<path fill-rule="evenodd" clip-rule="evenodd" d="M101.823 89.9159C101.89 89.9159 101.944 89.97 101.944 90.0367V98.596C101.944 98.6627 101.89 98.7168 101.823 98.7168C101.756 98.7168 101.702 98.6627 101.702 98.596V90.0367C101.702 89.97 101.756 89.9159 101.823 89.9159Z" fill="#1E283A"/>
<path fill-rule="evenodd" clip-rule="evenodd" d="M100.874 90.4097C100.941 90.4097 100.995 90.4638 100.995 90.5305V99.1309C100.995 99.1976 100.941 99.2517 100.874 99.2517C100.807 99.2517 100.753 99.1976 100.753 99.1309V90.5305C100.753 90.4638 100.807 90.4097 100.874 90.4097Z" fill="#1E283A"/>
<path fill-rule="evenodd" clip-rule="evenodd" d="M99.9254 90.9874C99.9914 90.9874 100.045 91.0408 100.045 91.1066V99.4601C100.045 99.5259 99.9914 99.5793 99.9254 99.5793C99.8594 99.5793 99.8059 99.5259 99.8059 99.4601V91.1066C99.8059 91.0408 99.8594 90.9874 99.9254 90.9874Z" fill="#1E283A"/>
<path fill-rule="evenodd" clip-rule="evenodd" d="M99.0177 90.6155C99.0846 90.6155 99.1389 90.6696 99.1389 90.7363V99.3367C99.1389 99.4034 99.0846 99.4575 99.0177 99.4575C98.9508 99.4575 98.8966 99.4034 98.8966 99.3367V90.7363C98.8966 90.6696 98.9508 90.6155 99.0177 90.6155Z" fill="#1E283A"/>
<path fill-rule="evenodd" clip-rule="evenodd" d="M98.2338 90.2039C98.3007 90.2039 98.3549 90.258 98.3549 90.3247V98.9251C98.3549 98.9919 98.3007 99.0459 98.2338 99.0459C98.1669 99.0459 98.1127 98.9919 98.1127 98.9251V90.3247C98.1127 90.258 98.1669 90.2039 98.2338 90.2039Z" fill="#1E283A"/>
<path fill-rule="evenodd" clip-rule="evenodd" d="M107.806 85.9991C107.877 85.9991 107.934 86.0566 107.934 86.1274V95.7977C107.934 95.8686 107.877 95.926 107.806 95.926C107.735 95.926 107.677 95.8686 107.677 95.7977V86.1274C107.677 86.0566 107.735 85.9991 107.806 85.9991Z" fill="#1E283A"/>
<path fill-rule="evenodd" clip-rule="evenodd" d="M106.815 85.5128C106.882 85.5128 106.936 85.5669 106.936 85.6336V96.1681C106.936 96.2348 106.882 96.2889 106.815 96.2889C106.748 96.2889 106.694 96.2348 106.694 96.1681V85.6336C106.694 85.5669 106.748 85.5128 106.815 85.5128Z" fill="#1E283A"/>
<path d="M90.2711 101.847L81.0294 106.538L82.8035 107.402L92.0451 102.752L90.2711 101.847Z" fill="#FFE2C0"/>
<path opacity="0.2" d="M90.2711 78.5969V101.847L91.3026 102.382V79.1319L90.4361 78.6792L90.2711 78.5969Z" fill="#1E283A"/>
<path fill-rule="evenodd" clip-rule="evenodd" d="M90.0944 101.741C90.1528 101.621 90.2977 101.571 90.4181 101.629L93.1411 102.946C93.2243 102.986 93.2773 103.07 93.2776 103.163C93.2779 103.255 93.2255 103.339 93.1425 103.38L84.1897 107.783C84.1239 107.816 84.047 107.817 83.9805 107.786L81.6701 106.716C81.5487 106.66 81.496 106.516 81.5524 106.395C81.6087 106.274 81.7528 106.221 81.8741 106.278L84.0794 107.299L92.4839 103.165L90.2067 102.064C90.0863 102.006 90.036 101.861 90.0944 101.741Z" fill="#1E283A"/>
<path fill-rule="evenodd" clip-rule="evenodd" d="M90.0944 93.1821C90.1528 93.062 90.2977 93.0119 90.4181 93.0701L93.1411 94.3869C93.2243 94.4272 93.2773 94.5112 93.2776 94.6035C93.2779 94.6958 93.2255 94.7802 93.1425 94.8211L84.1897 99.2241C84.1228 99.257 84.0445 99.2574 83.9773 99.2251L81.6669 98.114C81.5464 98.056 81.4958 97.9116 81.5539 97.7914C81.612 97.6712 81.7568 97.6207 81.8773 97.6787L84.0813 98.7386L92.4838 94.6062L90.2067 93.505C90.0863 93.4467 90.036 93.3022 90.0944 93.1821Z" fill="#1E283A"/>
<path d="M82.1022 81.2305H79.833V107.032H82.1022V81.2305Z" fill="#FFC77D"/>
<path fill-rule="evenodd" clip-rule="evenodd" d="M93.0353 94.4835C93.1022 94.4835 93.1564 94.5376 93.1564 94.6043V103.164C93.1564 103.23 93.1022 103.284 93.0353 103.284C92.9684 103.284 92.9142 103.23 92.9142 103.164V94.6043C92.9142 94.5376 92.9684 94.4835 93.0353 94.4835Z" fill="#1E283A"/>
<path fill-rule="evenodd" clip-rule="evenodd" d="M89.9411 96.0884C90.008 96.0884 90.0622 96.1425 90.0622 96.2092V104.768C90.0622 104.835 90.008 104.889 89.9411 104.889C89.8742 104.889 89.8199 104.835 89.8199 104.768V96.2092C89.8199 96.1425 89.8742 96.0884 89.9411 96.0884Z" fill="#1E283A"/>
<path fill-rule="evenodd" clip-rule="evenodd" d="M88.9921 96.6234C89.059 96.6234 89.1132 96.6774 89.1132 96.7442V105.303C89.1132 105.37 89.059 105.424 88.9921 105.424C88.9252 105.424 88.871 105.37 88.871 105.303V96.7442C88.871 96.6774 88.9252 96.6234 88.9921 96.6234Z" fill="#1E283A"/>
<path fill-rule="evenodd" clip-rule="evenodd" d="M88.0433 96.9114C88.1101 96.9114 88.1644 96.9655 88.1644 97.0323V105.633C88.1644 105.699 88.1101 105.753 88.0433 105.753C87.9764 105.753 87.9221 105.699 87.9221 105.633V97.0323C87.9221 96.9655 87.9764 96.9114 88.0433 96.9114Z" fill="#1E283A"/>
<path fill-rule="evenodd" clip-rule="evenodd" d="M87.0943 97.4464C87.1612 97.4464 87.2154 97.5004 87.2154 97.5672V106.168C87.2154 106.234 87.1612 106.288 87.0943 106.288C87.0274 106.288 86.9731 106.234 86.9731 106.168V97.5672C86.9731 97.5004 87.0274 97.4464 87.0943 97.4464Z" fill="#1E283A"/>
<path fill-rule="evenodd" clip-rule="evenodd" d="M86.0629 97.8167C86.1298 97.8167 86.184 97.8708 86.184 97.9375V106.497C86.184 106.563 86.1298 106.618 86.0629 106.618C85.996 106.618 85.9418 106.563 85.9418 106.497V97.9375C85.9418 97.8708 85.996 97.8167 86.0629 97.8167Z" fill="#1E283A"/>
<path fill-rule="evenodd" clip-rule="evenodd" d="M85.1552 98.3517C85.2221 98.3517 85.2763 98.4058 85.2763 98.4725V107.032C85.2763 107.098 85.2221 107.153 85.1552 107.153C85.0883 107.153 85.0341 107.098 85.0341 107.032V98.4725C85.0341 98.4058 85.0883 98.3517 85.1552 98.3517Z" fill="#1E283A"/>
<path fill-rule="evenodd" clip-rule="evenodd" d="M84.165 98.8882C84.231 98.8882 84.2845 98.9416 84.2845 99.0074V107.361C84.2845 107.427 84.231 107.48 84.165 107.48C84.099 107.48 84.0455 107.427 84.0455 107.361V99.0074C84.0455 98.9416 84.099 98.8882 84.165 98.8882Z" fill="#1E283A"/>
<path fill-rule="evenodd" clip-rule="evenodd" d="M83.2986 98.5574C83.3655 98.5574 83.4198 98.6115 83.4198 98.6783V107.237C83.4198 107.304 83.3655 107.358 83.2986 107.358C83.2317 107.358 83.1775 107.304 83.1775 107.237V98.6783C83.1775 98.6115 83.2317 98.5574 83.2986 98.5574Z" fill="#1E283A"/>
<path fill-rule="evenodd" clip-rule="evenodd" d="M82.4734 98.1459C82.5403 98.1459 82.5946 98.2 82.5946 98.2668V106.826C82.5946 106.893 82.5403 106.947 82.4734 106.947C82.4065 106.947 82.3523 106.893 82.3523 106.826V98.2668C82.3523 98.2 82.4065 98.1459 82.4734 98.1459Z" fill="#1E283A"/>
<path fill-rule="evenodd" clip-rule="evenodd" d="M92.0452 93.9C92.1162 93.9 92.1738 93.9574 92.1738 94.0282V103.699C92.1738 103.769 92.1162 103.827 92.0452 103.827C91.9742 103.827 91.9166 103.769 91.9166 103.699V94.0282C91.9166 93.9574 91.9742 93.9 92.0452 93.9Z" fill="#1E283A"/>
<path fill-rule="evenodd" clip-rule="evenodd" d="M91.055 93.4136C91.1219 93.4136 91.1761 93.4677 91.1761 93.5345V104.069C91.1761 104.136 91.1219 104.19 91.055 104.19C90.9881 104.19 90.9338 104.136 90.9338 104.069V93.5345C90.9338 93.4677 90.9881 93.4136 91.055 93.4136Z" fill="#1E283A"/>
<path d="M74.0982 109.953L64.8566 114.645L66.6306 115.509L75.9135 110.859L74.0982 109.953Z" fill="#FFE2C0"/>
<path opacity="0.2" d="M74.0983 86.7036V109.953L75.1297 110.488V87.1974L74.2633 86.7447L74.0983 86.7036Z" fill="#1E283A"/>
<path fill-rule="evenodd" clip-rule="evenodd" d="M73.9215 109.848C73.9799 109.728 74.1248 109.678 74.2452 109.736L76.9682 111.053C77.0515 111.093 77.1045 111.177 77.1048 111.269C77.1051 111.362 77.0527 111.446 76.9697 111.487L68.0168 115.89C67.9499 115.923 67.8716 115.923 67.8045 115.891L65.494 114.78C65.3735 114.722 65.3229 114.578 65.381 114.457C65.4391 114.337 65.5839 114.287 65.7045 114.345L67.9085 115.404L76.311 111.272L74.0338 110.171C73.9134 110.113 73.8632 109.968 73.9215 109.848Z" fill="#1E283A"/>
<path fill-rule="evenodd" clip-rule="evenodd" d="M73.9202 101.291C73.9771 101.171 74.1214 101.119 74.2425 101.175L76.9655 102.451C77.0496 102.491 77.1037 102.574 77.1048 102.667C77.1058 102.76 77.0536 102.845 76.9705 102.886L68.0176 107.33C67.9506 107.364 67.8719 107.364 67.8045 107.332L65.494 106.221C65.3735 106.163 65.3229 106.018 65.381 105.898C65.4391 105.778 65.5839 105.727 65.7045 105.785L67.908 106.845L76.3061 102.676L74.0365 101.613C73.9154 101.556 73.8634 101.412 73.9202 101.291Z" fill="#1E283A"/>
<path d="M65.9293 89.3372H63.6602V115.138H65.9293V89.3372Z" fill="#FFC77D"/>
<path fill-rule="evenodd" clip-rule="evenodd" d="M76.8625 102.549C76.9294 102.549 76.9836 102.603 76.9836 102.67V111.27C76.9836 111.337 76.9294 111.391 76.8625 111.391C76.7956 111.391 76.7413 111.337 76.7413 111.27V102.67C76.7413 102.603 76.7956 102.549 76.8625 102.549Z" fill="#1E283A"/>
<path fill-rule="evenodd" clip-rule="evenodd" d="M73.7682 104.195C73.8351 104.195 73.8894 104.249 73.8894 104.316V112.875C73.8894 112.942 73.8351 112.996 73.7682 112.996C73.7013 112.996 73.6471 112.942 73.6471 112.875V104.316C73.6471 104.249 73.7013 104.195 73.7682 104.195Z" fill="#1E283A"/>
<path fill-rule="evenodd" clip-rule="evenodd" d="M72.8605 104.689C72.9274 104.689 72.9816 104.743 72.9816 104.81V113.41C72.9816 113.477 72.9274 113.531 72.8605 113.531C72.7936 113.531 72.7394 113.477 72.7394 113.41V104.81C72.7394 104.743 72.7936 104.689 72.8605 104.689Z" fill="#1E283A"/>
<path fill-rule="evenodd" clip-rule="evenodd" d="M71.8704 105.018C71.9373 105.018 71.9915 105.072 71.9915 105.139V113.739C71.9915 113.806 71.9373 113.86 71.8704 113.86C71.8035 113.86 71.7493 113.806 71.7493 113.739V105.139C71.7493 105.072 71.8035 105.018 71.8704 105.018Z" fill="#1E283A"/>
<path fill-rule="evenodd" clip-rule="evenodd" d="M70.9627 105.553C71.0296 105.553 71.0838 105.607 71.0838 105.674V114.233C71.0838 114.3 71.0296 114.354 70.9627 114.354C70.8958 114.354 70.8416 114.3 70.8416 114.233V105.674C70.8416 105.607 70.8958 105.553 70.9627 105.553Z" fill="#1E283A"/>
<path fill-rule="evenodd" clip-rule="evenodd" d="M69.8901 105.923C69.957 105.923 70.0112 105.977 70.0112 106.044V114.603C70.0112 114.67 69.957 114.724 69.8901 114.724C69.8232 114.724 69.7689 114.67 69.7689 114.603V106.044C69.7689 105.977 69.8232 105.923 69.8901 105.923Z" fill="#1E283A"/>
<path fill-rule="evenodd" clip-rule="evenodd" d="M68.9823 106.417C69.0492 106.417 69.1035 106.471 69.1035 106.538V115.138C69.1035 115.205 69.0492 115.259 68.9823 115.259C68.9154 115.259 68.8612 115.205 68.8612 115.138V106.538C68.8612 106.471 68.9154 106.417 68.9823 106.417Z" fill="#1E283A"/>
<path fill-rule="evenodd" clip-rule="evenodd" d="M67.9922 106.995C68.0582 106.995 68.1117 107.048 68.1117 107.114V115.468C68.1117 115.533 68.0582 115.587 67.9922 115.587C67.9262 115.587 67.8727 115.533 67.8727 115.468V107.114C67.8727 107.048 67.9262 106.995 67.9922 106.995Z" fill="#1E283A"/>
<path fill-rule="evenodd" clip-rule="evenodd" d="M67.1258 106.623C67.1927 106.623 67.2469 106.677 67.2469 106.744V115.344C67.2469 115.411 67.1927 115.465 67.1258 115.465C67.0589 115.465 67.0046 115.411 67.0046 115.344V106.744C67.0046 106.677 67.0589 106.623 67.1258 106.623Z" fill="#1E283A"/>
<path fill-rule="evenodd" clip-rule="evenodd" d="M66.3006 106.211C66.3675 106.211 66.4217 106.265 66.4217 106.332V114.933C66.4217 114.999 66.3675 115.053 66.3006 115.053C66.2337 115.053 66.1794 114.999 66.1794 114.933V106.332C66.1794 106.265 66.2337 106.211 66.3006 106.211Z" fill="#1E283A"/>
<path fill-rule="evenodd" clip-rule="evenodd" d="M75.8724 102.007C75.9434 102.007 76.001 102.064 76.001 102.135V111.805C76.001 111.876 75.9434 111.933 75.8724 111.933C75.8014 111.933 75.7438 111.876 75.7438 111.805V102.135C75.7438 102.064 75.8014 102.007 75.8724 102.007Z" fill="#1E283A"/>
<path fill-rule="evenodd" clip-rule="evenodd" d="M74.8821 101.52C74.949 101.52 75.0032 101.574 75.0032 101.641V112.176C75.0032 112.242 74.949 112.296 74.8821 112.296C74.8152 112.296 74.761 112.242 74.761 112.176V101.641C74.761 101.574 74.8152 101.52 74.8821 101.52Z" fill="#1E283A"/>
<path d="M36.3065 61.1081L36.3478 45.8825L44.9293 50.121V65.3877L36.3065 61.1081Z" fill="#D2E1FF"/>
<path d="M36.6778 46.4175L44.558 50.3679V64.8939L36.6778 60.9023V46.4175ZM36.0177 45.3064L35.9764 61.3138L45.2593 65.9227V49.9152L36.0177 45.3064Z" fill="white"/>
<path fill-rule="evenodd" clip-rule="evenodd" d="M40.0146 63.1244V47.6931H40.6849V63.1244H40.0146Z" fill="white"/>
<path d="M35.9764 61.2315L45.218 65.9226L44.2691 66.6222L34.9449 61.7665L35.9764 61.2315Z" fill="#E5C8AE"/>
<path opacity="0.2" d="M36.0176 45.3064L35.9764 61.2315L34.9449 61.7665V45.8002L35.8114 45.3475L36.0176 45.3064Z" fill="#1E283A"/>
<path d="M44.1454 66.4988L47.776 68.0213L46.4145 47.8989H44.1454V66.4988Z" fill="#FFB94D"/>
<path d="M36.3065 95.7566L36.3478 80.4899L44.9293 84.7695V100.036L36.3065 95.7566Z" fill="#D2E1FF"/>
<path d="M36.6778 81.0248L44.558 84.9752V99.5013L36.6366 95.5508L36.6778 81.0248ZM36.0177 79.9549L35.9764 95.9623L45.2593 100.571V84.5637L36.0177 79.9549Z" fill="white"/>
<path fill-rule="evenodd" clip-rule="evenodd" d="M40.0146 97.7318V82.3416H40.6849V97.7318H40.0146Z" fill="white"/>
<path d="M35.9764 95.88L45.218 100.53L44.2691 101.271L34.9449 96.415L35.9764 95.88Z" fill="#E5C8AE"/>
<path opacity="0.2" d="M36.0176 79.9549L35.9764 95.88L34.9449 96.415V80.4487L35.8114 79.996L36.0176 79.9549Z" fill="#1E283A"/>
<path d="M44.1454 101.106L47.776 102.629L46.4145 82.5474H44.1454V101.106Z" fill="#FFB94D"/>
<path d="M36.3065 130.405L36.3478 115.138L44.9293 119.418V134.644L36.3065 130.405Z" fill="#D2E1FF"/>
<path d="M36.6778 115.674L44.558 119.624V134.15L36.6366 130.2L36.6778 115.674ZM36.0177 114.604L35.9764 130.611L45.2593 135.22V119.212L36.0177 114.604Z" fill="white"/>
<path fill-rule="evenodd" clip-rule="evenodd" d="M40.0146 132.38V116.99H40.6849V132.38H40.0146Z" fill="white"/>
<path d="M35.9764 130.487L45.218 135.178L44.2691 135.878L34.9449 131.022L35.9764 130.487Z" fill="#E5C8AE"/>
<path opacity="0.2" d="M36.0176 114.562L35.9764 130.487L34.9449 131.022V115.097L35.8114 114.645L36.0176 114.562Z" fill="#1E283A"/>
<path d="M44.1454 135.755L47.776 137.277L46.4145 117.196H44.1454V135.755Z" fill="#FFB94D"/>
<path d="M82.391 119.171L90.9313 114.891V137.483L82.391 141.721V119.171Z" fill="#D2E1FF"/>
<path d="M90.6012 115.426V137.236L82.721 141.186V119.377L90.6012 115.426ZM91.2613 114.357L82.0197 118.965V142.298L91.2613 137.689V114.357Z" fill="white"/>
<path fill-rule="evenodd" clip-rule="evenodd" d="M86.6354 139.458V116.743H87.3056V139.458H86.6354Z" fill="white"/>
<path d="M91.0963 114.809L99.6778 110.53V133.121L91.0963 137.401V114.809Z" fill="#D2E1FF"/>
<path d="M99.3065 111.106V132.915L91.4264 136.866V115.056L99.3065 111.106ZM100.008 109.995L90.7662 114.603V137.936L100.008 133.327V109.995Z" fill="white"/>
<path fill-rule="evenodd" clip-rule="evenodd" d="M95.3407 135.096V112.381H96.011V135.096H95.3407Z" fill="white"/>
<path opacity="0.2" d="M64.0728 121.187L73.727 136.578L111.766 117.443V97.7318L64.0728 121.187Z" fill="#1E283A"/>
<path fill-rule="evenodd" clip-rule="evenodd" d="M64.1827 125.202C64.2385 125.08 64.3824 125.027 64.504 125.083L73.1268 129.033C73.2483 129.089 73.3016 129.232 73.2458 129.354C73.1899 129.475 73.0461 129.528 72.9245 129.472L64.3017 125.522C64.1801 125.466 64.1268 125.323 64.1827 125.202Z" fill="#1E283A"/>
<path d="M64.0728 121.187L111.56 97.7318L118.821 105.715L72.283 129.171L64.0728 121.187Z" fill="#91AFF9"/>
<path d="M72.283 129.171V132.051L118.45 109.46L118.821 105.715L72.283 129.171Z" fill="#6586C9"/>
<path fill-rule="evenodd" clip-rule="evenodd" d="M15.1414 127.895C15.4832 127.895 15.7603 128.171 15.7603 128.512V138.594C15.7603 138.935 15.4832 139.211 15.1414 139.211C14.7997 139.211 14.5226 138.935 14.5226 138.594V128.512C14.5226 128.171 14.7997 127.895 15.1414 127.895Z" fill="#1E283A"/>
<path d="M21.9489 119.5C21.9489 129.829 18.9784 132.01 15.3478 132.01C11.7171 132.01 8.74658 129.829 8.74658 119.5C8.74658 109.172 11.7171 96.2915 15.3478 96.2915C18.9784 96.2504 21.9489 109.172 21.9489 119.5Z" fill="#91AFF9"/>
<path d="M19.0609 127.072C15.4303 127.072 12.4597 126.537 12.4597 116.208C12.4597 109.666 13.6562 101.435 15.4303 96.2917C15.389 96.2917 15.389 96.2917 15.3478 96.2917C11.7171 96.2917 8.74658 109.213 8.74658 119.5C8.74658 129.829 11.7171 132.01 15.3478 132.01C17.9057 132.01 20.1336 130.94 21.2063 126.743C20.5462 126.99 19.8036 127.072 19.0609 127.072Z" fill="#6586C9"/>
<path opacity="0.2" d="M14.9352 140.034C17.0998 140.034 18.8546 139.26 18.8546 138.306C18.8546 137.351 17.0998 136.578 14.9352 136.578C12.7705 136.578 11.0157 137.351 11.0157 138.306C11.0157 139.26 12.7705 140.034 14.9352 140.034Z" fill="#1E283A"/>
<path fill-rule="evenodd" clip-rule="evenodd" d="M31.7269 135.919C32.0687 135.919 32.3458 136.196 32.3458 136.536V146.618C32.3458 146.959 32.0687 147.236 31.7269 147.236C31.3851 147.236 31.108 146.959 31.108 146.618V136.536C31.108 136.196 31.3851 135.919 31.7269 135.919Z" fill="#1E283A"/>
<path d="M38.5344 127.525C38.5344 137.853 35.5639 140.034 31.9332 140.034C28.3026 140.034 25.332 137.853 25.332 127.525C25.332 117.196 28.3026 104.316 31.9332 104.316C35.6051 104.275 38.5344 117.196 38.5344 127.525Z" fill="#91AFF9"/>
<path d="M35.6464 135.096C32.0157 135.096 29.0452 132.915 29.0452 122.587C29.0452 116.044 30.2417 109.46 32.0157 104.316C31.9745 104.316 31.9745 104.316 31.9332 104.316C28.3026 104.316 25.332 117.237 25.332 127.525C25.332 137.853 28.3026 140.034 31.9332 140.034C34.4912 140.034 36.7191 138.964 37.7918 134.767C37.1316 135.014 36.4303 135.096 35.6464 135.096Z" fill="#6586C9"/>
<path opacity="0.2" d="M31.5206 148.059C33.6853 148.059 35.4401 147.285 35.4401 146.33C35.4401 145.376 33.6853 144.602 31.5206 144.602C29.356 144.602 27.6012 145.376 27.6012 146.33C27.6012 147.285 29.356 148.059 31.5206 148.059Z" fill="#1E283A"/>
<path fill-rule="evenodd" clip-rule="evenodd" d="M49.3851 143.532C49.7269 143.532 50.004 143.808 50.004 144.149V154.231C50.004 154.572 49.7269 154.848 49.3851 154.848C49.0433 154.848 48.7662 154.572 48.7662 154.231V144.149C48.7662 143.808 49.0433 143.532 49.3851 143.532Z" fill="#1E283A"/>
<path d="M56.1926 135.137C56.1926 145.466 53.2221 147.647 49.5914 147.647C45.9608 147.647 42.9902 145.466 42.9902 135.137C42.9902 124.809 45.9608 111.929 49.5914 111.929C53.2221 111.887 56.1926 124.809 56.1926 135.137Z" fill="#91AFF9"/>
<path d="M53.3046 142.709C49.6739 142.709 46.7034 140.528 46.7034 130.199C46.7034 123.657 47.8999 117.073 49.6739 111.929C49.6327 111.929 49.6327 111.929 49.5914 111.929C45.9608 111.929 42.9902 124.85 42.9902 135.137C42.9902 145.466 45.9608 147.647 49.5914 147.647C52.1494 147.647 54.3773 146.577 55.45 142.38C54.7898 142.627 54.0472 142.709 53.3046 142.709Z" fill="#6586C9"/>
<path opacity="0.2" d="M49.1788 155.671C51.3435 155.671 53.0983 154.898 53.0983 153.943C53.0983 152.989 51.3435 152.215 49.1788 152.215C47.0142 152.215 45.2594 152.989 45.2594 153.943C45.2594 154.898 47.0142 155.671 49.1788 155.671Z" fill="#1E283A"/>
</svg>
